<svg xmlns="http://www.w3.org/2000/svg" width="384.5" height="384.5" viewBox="0 0 384.5 384.5"><defs><style>.cls-1{fill:#353f1e;stroke:#a95417;stroke-miterlimit:10;stroke-width:0.75px;}.cls-2{fill:#c7c711;}.cls-3{fill:#a95417;}</style></defs><title>ForsideBillede</title><g id="Layer_2" data-name="Layer 2"><g id="Layer_1-2" data-name="Layer 1"><circle class="cls-1" cx="192.25" cy="192.25" r="191.88"/><path class="cls-2" d="M139.34,66.31l-9.65-7.2-2.29,4.82,2.18,6-.9.32-5.85-16,.9-.32,3.29,9,5.84-12.34,1.08-.39-3.81,8.12,10.26,7.64Z" transform="translate(0 -35.99)"/><path class="cls-2" d="M138.77,51.05l-.63-2.1.92-.27.63,2.1Zm4.29,14.19-3.52-11.71.87-.26L143.93,65Z" transform="translate(0 -35.99)"/><path class="cls-2" d="M155.54,61.93l-.49-2a4.79,4.79,0,0,1-1.45,2.15,5.92,5.92,0,0,1-2.46,1.21,4.51,4.51,0,0,1-3.23-.21,3.49,3.49,0,0,1-1.73-2.4,3.33,3.33,0,0,1,.71-3.21,9.41,9.41,0,0,1,4.26-2.16l2.57-.72-.12-.49a4.13,4.13,0,0,0-1.47-2.62,3.78,3.78,0,0,0-2.91-.16,5,5,0,0,0-2.37,1.15,2.64,2.64,0,0,0-.75,2l-.82,0q-.09-3,3.82-4a4.57,4.57,0,0,1,3.52.23,4.7,4.7,0,0,1,1.85,3.07l1.93,7.89Zm-1.64-6.61-2.48.7a8.76,8.76,0,0,0-3.74,1.82,2.65,2.65,0,0,0-.6,2.63,2.73,2.73,0,0,0,1.35,1.9,3.68,3.68,0,0,0,2.58.13,4.69,4.69,0,0,0,3-1.93,3.85,3.85,0,0,0,.61-1.36,3.53,3.53,0,0,0-.12-1.53Z" transform="translate(0 -35.99)"/><path class="cls-2" d="M168.82,59.53l-1.28-7.84A4.37,4.37,0,0,0,166.28,49a3.08,3.08,0,0,0-2.61-.53,4.94,4.94,0,0,0-3.17,1.87,3.44,3.44,0,0,0-.73,1.4,5.15,5.15,0,0,0,0,1.78l1.2,7.32-.89.14-2-12.06.89-.15.34,2.07a5.69,5.69,0,0,1,4.31-3.22,3.92,3.92,0,0,1,3.16.63,4.76,4.76,0,0,1,1.55,3.12l1.32,8Z" transform="translate(0 -35.99)"/><path class="cls-2" d="M190.9,57.88l-.32-8.36-10.29.39.32,8.36-1,0-.65-17,1,0,.3,7.77,10.29-.39-.3-7.77.95,0,.65,17Z" transform="translate(0 -35.99)"/><path class="cls-2" d="M204,58.33l.1-2a4.68,4.68,0,0,1-2,1.64,5.79,5.79,0,0,1-2.7.47,4.54,4.54,0,0,1-3-1.13,3.42,3.42,0,0,1-1-2.79A3.28,3.28,0,0,1,197,51.6a9.4,9.4,0,0,1,4.7-.86l2.67,0,0-.5a4.07,4.07,0,0,0-.67-2.93,3.73,3.73,0,0,0-2.74-1,4.91,4.91,0,0,0-2.6.42,2.64,2.64,0,0,0-1.27,1.68l-.81-.18q.77-2.92,4.79-2.73a4.66,4.66,0,0,1,3.32,1.22,4.69,4.69,0,0,1,.89,3.47l-.39,8.12Zm.31-6.81-2.57,0a8.62,8.62,0,0,0-4.11.68,2.64,2.64,0,0,0-1.31,2.35,2.69,2.69,0,0,0,.75,2.21,3.71,3.71,0,0,0,2.44.85,4.67,4.67,0,0,0,3.39-1,3.73,3.73,0,0,0,1-1.14,3.64,3.64,0,0,0,.32-1.5Z" transform="translate(0 -35.99)"/><path class="cls-2" d="M217.41,59.79l1-7.87a4.42,4.42,0,0,0-.43-3,3.1,3.1,0,0,0-2.36-1.25,5,5,0,0,0-3.57.89A3.42,3.42,0,0,0,211,49.73a4.89,4.89,0,0,0-.47,1.72l-.93,7.35-.9-.11,1.53-12.13.9.11-.26,2.08a5.67,5.67,0,0,1,5-1.86,3.91,3.91,0,0,1,2.85,1.5,4.8,4.8,0,0,1,.61,3.43l-1,8.09Z" transform="translate(0 -35.99)"/><path class="cls-2" d="M231.74,52.92a3.43,3.43,0,0,0-.89-2.08,4.65,4.65,0,0,0-2.3-1c-2.35-.49-3.7.1-4,1.75a1.91,1.91,0,0,0,.32,1.68,5.18,5.18,0,0,0,2.09,1.27l1.44.56a6.47,6.47,0,0,1,2.75,1.73,2.84,2.84,0,0,1,.44,2.41,3.14,3.14,0,0,1-1.69,2.36,5.47,5.47,0,0,1-3.53.22A6.06,6.06,0,0,1,223,60.17a3.67,3.67,0,0,1-.91-3l.86.18a3,3,0,0,0,.8,2.35A5.05,5.05,0,0,0,226.45,61a4.82,4.82,0,0,0,2.88-.09,2.34,2.34,0,0,0,1.31-1.82,2.1,2.1,0,0,0-.35-1.85,5.13,5.13,0,0,0-2.2-1.35l-1.24-.48a6.38,6.38,0,0,1-2.74-1.66,2.59,2.59,0,0,1-.47-2.28,2.93,2.93,0,0,1,1.66-2.22,6.57,6.57,0,0,1,6.24,1.12,3.68,3.68,0,0,1,1,2.54Z" transform="translate(0 -35.99)"/><path class="cls-2" d="M238.87,64.89a5.17,5.17,0,0,1-3.49-2.79,7,7,0,0,1-.14-5,8.06,8.06,0,0,1,1.6-3.1,5.29,5.29,0,0,1,2.5-1.65,5.47,5.47,0,0,1,3.15.06A5.19,5.19,0,0,1,246,55.21a7,7,0,0,1,.12,5,8,8,0,0,1-1.58,3.08A5.32,5.32,0,0,1,242,65,5.52,5.52,0,0,1,238.87,64.89Zm.24-.77a4.25,4.25,0,0,0,3.75-.48A6.41,6.41,0,0,0,245.19,60a6.51,6.51,0,0,0,0-4.4,4.81,4.81,0,0,0-6.67-1.9,6.4,6.4,0,0,0-2.34,3.71,6.45,6.45,0,0,0,0,4.36A4.24,4.24,0,0,0,239.11,64.12Z" transform="translate(0 -35.99)"/><path class="cls-2" d="M255.87,70.28l2.79-7.43a4.38,4.38,0,0,0,.27-3,3.06,3.06,0,0,0-2-1.76,5,5,0,0,0-3.68,0,3.47,3.47,0,0,0-1.32.85,5.22,5.22,0,0,0-.86,1.57l-2.61,6.93-.84-.31,4.3-11.45.85.32L252,58a5.68,5.68,0,0,1,5.33-.64,3.86,3.86,0,0,1,2.43,2.12,4.8,4.8,0,0,1-.2,3.48l-2.87,7.63Z" transform="translate(0 -35.99)"/><circle class="cls-1" cx="192.25" cy="192.25" r="166.87"/><path class="cls-3" d="M275.41,223.75c-2-22.2-13.5-72.55-47.47-76.64-21.79-2.63-48.33,14.31-55.39,39.1-4.63,16.24-1.16,36.83,12.3,48.49C203,250.46,225,237.51,241.2,253.21s7.51,41.45,12.88,42.27C260.35,296.43,278.8,262.27,275.41,223.75Z" transform="translate(0 -35.99)"/><path class="cls-2" d="M204.06,255.09c-2-22.2-13.51-72.55-47.48-76.65-21.79-2.62-48.33,14.32-55.39,39.1-4.63,16.25-1.16,36.83,12.3,48.5,18.17,15.75,40.19,2.81,56.35,18.51s7.51,41.45,12.88,42.26C189,327.76,207.44,293.61,204.06,255.09Z" transform="translate(0 -35.99)"/></g></g></svg>
