<svg xmlns="http://www.w3.org/2000/svg" width="28.47" height="28.47" viewBox="0 0 28.47 28.47"><defs><style>.cls-1{fill:none;stroke:#c7c711;stroke-miterlimit:10;stroke-width:0.75px;}</style></defs><title>lilletre</title><g id="Layer_2" data-name="Layer 2"><g id="Layer_1-2" data-name="Layer 1"><circle class="cls-1" cx="14.24" cy="14.24" r="13.86"/><circle class="cls-1" cx="14.24" cy="14.24" r="12.05"/><path class="cls-1" d="M20.24,13.91c-.14-1.6-1-5.24-3.43-5.54a4,4,0,0,0-4,2.83,3.49,3.49,0,0,0,.89,3.5c1.31,1.14,2.9.21,4.07,1.34s.54,3,.93,3.05S20.49,16.69,20.24,13.91Z"/><path class="cls-1" d="M15.09,16.18c-.14-1.61-1-5.25-3.43-5.54a4,4,0,0,0-4,2.82A3.47,3.47,0,0,0,8.55,17c1.31,1.13,2.9.2,4.07,1.33s.54,3,.93,3.06S15.33,19,15.09,16.18Z"/></g></g></svg>
