<svg xmlns="http://www.w3.org/2000/svg" width="73.47" height="73.47" viewBox="0 0 73.47 73.47"><defs><style>.cls-1{fill:none;stroke:#c7c711;stroke-miterlimit:10;stroke-width:0.75px;}</style></defs><title>LilleLogo</title><g id="Layer_2" data-name="Layer 2"><g id="Layer_1-2" data-name="Layer 1"><circle class="cls-1" cx="36.74" cy="36.74" r="36.36"/><circle class="cls-1" cx="36.74" cy="36.74" r="31.62"/><path class="cls-1" d="M52.5,35.89c-.37-4.21-2.56-13.75-9-14.53-4.13-.5-9.16,2.71-10.5,7.41-.87,3.08-.22,7,2.33,9.19,3.45,3,7.62.53,10.68,3.51s1.43,7.85,2.44,8C49.64,49.66,53.14,43.18,52.5,35.89Z"/><path class="cls-1" d="M39,41.82c-.37-4.2-2.56-13.75-9-14.52-4.13-.5-9.16,2.71-10.5,7.41-.88,3.08-.22,7,2.33,9.19,3.44,3,7.62.53,10.68,3.51s1.42,7.85,2.44,8C36.12,55.59,39.61,49.12,39,41.82Z"/></g></g></svg>
