<svg xmlns="http://www.w3.org/2000/svg" xmlns:xlink="http://www.w3.org/1999/xlink" width="823.04" height="514" viewBox="0 0 823.04 514"><defs><style>.cls-1,.cls-6,.cls-8{fill:#fff;}.cls-1,.cls-10,.cls-12,.cls-13,.cls-20,.cls-4,.cls-7,.cls-8{stroke:#1d1d1b;}.cls-1,.cls-10,.cls-12,.cls-13,.cls-14,.cls-15,.cls-18,.cls-20,.cls-4,.cls-5,.cls-7,.cls-8{stroke-miterlimit:10;}.cls-1,.cls-12,.cls-18,.cls-5{stroke-width:0.25px;}.cls-2{fill:#f9b233;}.cls-3,.cls-5{fill:#ffe1aa;}.cls-10,.cls-12,.cls-4{fill:none;}.cls-4,.cls-7,.cls-8{stroke-width:0.5px;}.cls-18,.cls-5{stroke:#ca9e67;}.cls-13,.cls-14,.cls-15,.cls-19,.cls-7{fill:#1d1d1b;}.cls-9{fill:#fff379;}.cls-11{fill:#f6a976;}.cls-13,.cls-15{stroke-width:3px;}.cls-14,.cls-15{stroke:#575756;}.cls-16{fill:#683c11;}.cls-17,.cls-18{fill:#d0ad86;}.cls-20{fill:#e30613;}</style></defs><title>SharingIsNotCaring</title><g id="Layer_2" data-name="Layer 2"><g id="Layer_2-2" data-name="Layer 2"><image width="1281" height="800" transform="scale(0.64)" xlink:href="../Downloads/56544588_839749813038695_7720031138479079424_n.png"/></g><g id="Layer_3" data-name="Layer 3"><rect class="cls-1" x="182.93" y="193.77" width="151.03" height="239.39" transform="translate(-73.36 79.03) rotate(-15.25)"/><path class="cls-2" d="M199.66,355.72l.05.51-.13-.5Z"/><path class="cls-3" d="M322.08,297.17c-.75-1.36-1.69-2.84-3.2-3.12-1.43-1.4-2.65-2.85-4.16-4.17a76.7,76.7,0,0,0-9.78-7.42,59,59,0,0,0-12-5.66c-27.35,7.07-55.14,14.93-82.2,23.1q-3.08,7.25-6.12,14.51a67.5,67.5,0,0,0-5,14.83c-1.06,6.68-.24,13.55.63,20.28,2.25,17.15,4.55,34.59,11.58,50.39A36.06,36.06,0,0,0,226,394c1.27,5.52,4.7,10.43,7.9,15.13a285.87,285.87,0,0,1,19.6,33.25c25.71-7.75,51.55-15.21,77.28-23a41.19,41.19,0,0,1,.93-9.65,118.39,118.39,0,0,0-.87-42.63c5.51-1.3,10.61-2.59,16.11-3.89A243.23,243.23,0,0,0,322.08,297.17Z"/><circle class="cls-4" cx="278.21" cy="373.63" r="1.36"/><path class="cls-4" d="M315,328.27c2.14,4.33,6.16,7.44,8.72,11.54a40.17,40.17,0,0,1,4,10,129.76,129.76,0,0,1,4.51,18.46"/><path class="cls-4" d="M215.91,356.85c2.16,5.91,2.36,12.33,3.05,18.56S221,388.15,225,393"/><path class="cls-4" d="M283.55,399.93a149.7,149.7,0,0,1,7,31.37"/><path class="cls-5" d="M226.24,198.11C193.68,207,173.57,237.38,181.36,266c4.12,15.11,15.22,26.71,29.58,33a6.12,6.12,0,0,0-.37-2.36,6.12,6.12,0,0,1,.37,2.36,65.76,65.76,0,0,0,43.54,2.76c32.56-8.87,52.68-39.25,44.88-67.84S258.8,189.23,226.24,198.11Z"/><ellipse class="cls-6" cx="227.41" cy="254.46" rx="15.12" ry="11.52" transform="translate(-62.76 434.08) rotate(-79.97)"/><ellipse class="cls-6" cx="252.12" cy="247.72" rx="11.52" ry="15.12" transform="translate(-76.82 118.39) rotate(-23.03)"/><circle class="cls-7" cx="233.03" cy="252.49" r="1.46"/><circle class="cls-7" cx="246.68" cy="247.24" r="1.46"/><polygon class="cls-8" points="267.36 269.71 263.2 282.35 250.87 278.54 267.36 269.71"/><path class="cls-9" d="M298,223.76c-13.09,2.32-26.6.06-39.39-3.44s-25.16-9.12-38.08-12.26a66.32,66.32,0,0,1-12.75,23.64,131.71,131.71,0,0,1-11.56,11.59c-5.57,5.08-11.4,10.37-18.52,12.86-4.7-10.49-2.83-23.11,2.73-33.2s14.13-18.06,23-25.44a48.83,48.83,0,0,1,12.39-8.31,42.41,42.41,0,0,1,15.13-2.6c20.39-.51,41.13,4.89,57.84,16.66.68,3.45,3.46,6,5.32,9A47.85,47.85,0,0,1,298,220.5,5.26,5.26,0,0,1,298,223.76Z"/><line class="cls-10" x1="224.6" y1="234.51" x2="212.07" y2="244.76"/><line class="cls-10" x1="246.76" y1="228.81" x2="260.29" y2="231.61"/><ellipse class="cls-11" cx="239.69" cy="336.9" rx="2.4" ry="1.42" transform="translate(-80.19 74.92) rotate(-15.25)"/><ellipse class="cls-11" cx="285.11" cy="324.52" rx="2.4" ry="1.42" transform="translate(-75.33 86.43) rotate(-15.25)"/><path class="cls-12" d="M289,385.51c0,.79.12,1.57.07,2.35a2.69,2.69,0,0,1-.87,2.08,1.84,1.84,0,0,1-1.93.12,1.91,1.91,0,0,1-1.06-1.68,23,23,0,0,1,1.34,9.15,2.6,2.6,0,0,1-1.15,2.13,2.14,2.14,0,0,1-1.25.11,4.46,4.46,0,0,1-2.62-1.85,12.73,12.73,0,0,1-1.46-2.93l-1.93-5.06a5,5,0,0,1,.06,2.86,1.72,1.72,0,0,1-2.16,1.13l-.11,0c-.9-.53-.78-1.92-1.41-2.76"/><path class="cls-13" d="M154.44,222.37l-4.33-15.87c-3.53-13,.81-25.56,9.66-28l113.53-31c8.85-2.42,19,6.23,22.52,19.19l4.33,15.88"/><path class="cls-13" d="M362.53,410.5l4.91,18c4,14.68.08,28.67-8.81,31.1L245.15,490.74c-8.85,2.41-19.36-7.6-23.36-22.28l-4.91-18"/><rect class="cls-13" x="185.39" y="217.37" width="6.53" height="236.16" transform="translate(-81.6 61.45) rotate(-15.25)"/><rect class="cls-13" x="325.07" y="179.28" width="6.53" height="236.16" transform="translate(-66.66 96.85) rotate(-15.25)"/><circle class="cls-14" cx="219.42" cy="178.09" r="3.72"/><circle class="cls-14" cx="203.21" cy="195.17" r="1.88"/><rect class="cls-14" x="209.09" y="187.77" width="28.78" height="3.77" rx="1.88" transform="translate(-42.02 65.47) rotate(-15.25)"/><circle class="cls-15" cx="295.27" cy="452.88" r="12.24"/><rect class="cls-1" x="443" y="237.74" width="239.39" height="151.03" transform="translate(109.14 770.47) rotate(-74.34)"/><path class="cls-2" d="M488.74,328.88a1.11,1.11,0,0,1-.19.45l.13-.48Z"/><path class="cls-16" d="M621.69,328.14l-.44-.12a8.7,8.7,0,0,0-.54-1.87,20,20,0,0,0,1.82-5.36c2-8.59,2.39-12.05,4.34-20.65,1,.07.56-4.88,1.53-4.83,5.9-12.33,6.1-24.41,9.33-37.7,1.38-5.68,1.46-14.27,1.31-20.12-.45-21.54-10-31.46-26.69-40.33-10.48-5.58-21.26-11.26-33.05-12.72-21.59-2.68-42.82,9.66-56.24,26.71-6,7.51-13.61,22.81-14.68,32.38-.61,5.4-2.12,6.17-2.73,11.56-1.13,10.22,1.9,20.41-2.39,29.75-2.46,5.36-5.88,10.22-8.65,15.42A76.2,76.2,0,0,0,486,325.85a12.51,12.51,0,0,0,2.88,2.25h0c3.73,2.16,8.4,2.75,12.5,4.72,16,7.72,35.09,5.58,52.84,5.88a288,288,0,0,0,30.25-.81c11.83-1,23.42-3,35-5l0,.13h0l0-.12.23,0-.2-.05.09-.34c1.22-.36,1.87-1.49,1.54-4.07A2,2,0,0,1,621.69,328.14ZM619.47,327l.09,0a1.63,1.63,0,0,0-.08.64l-.42-.12Zm2.93-39.59a43.55,43.55,0,0,1-7.66,8.38c-.66.6-1.29,1.24-1.88,1.85-7.8-.64-15.56-1.58-23.32-2.51l-20.43-2.46c-14.61-1.75-28.79-9.18-43.31-9.08l-.18-.28c-.37,1.34-.58,2.07-1.39,2.64.88-.55,1.07-1.26,1.39-2.64-1.46-2.27-3-4.83-4.39-6.89a20.86,20.86,0,0,1-2.78-4.79,20.3,20.3,0,0,1-.87-6.29c-.12-4.7-.24-9.44-.24-14.14a37.59,37.59,0,0,1,.82-9.52c1.13-4.4,3.75-8.25,6.25-12a3.61,3.61,0,0,1,4.5-1.06c2.7,1.31,7-.65,9.71-2.08,1.82-.93,3.44-2.33,5.27-3.35a49,49,0,0,1,8.62-3.35A52.91,52.91,0,0,0,572.69,207,234.38,234.38,0,0,0,629,261.6c-.49,3-.85,5.53-1.32,8.57-1,6-2,12.15-5.25,17.28Zm-6.12,45.15a1.34,1.34,0,0,1,.07-.27,8.53,8.53,0,0,0,3,.19l.06.24Z"/><path class="cls-17" d="M621,335.61a5.23,5.23,0,0,0-1.3-4.16c-.59-1.87-.94-3.68-1.63-5.51a73.58,73.58,0,0,0-4.94-10.89,57.18,57.18,0,0,0-7.62-10.53c-26.76-6.66-54.25-12.86-81.26-18.45q-6,4.76-12,9.62a66.42,66.42,0,0,0-11.11,10.48c-4.06,5.24-6.5,11.51-8.89,17.71-6.12,15.72-12.2,31.77-13.57,48.56a35.14,35.14,0,0,0,14.79,1.5c-1.5,5.36-.83,11.15-.25,16.65a279.69,279.69,0,0,1,1.33,37.62c25.67,5.32,51.31,11,77,16.26a39.84,39.84,0,0,1,5.28-7.83,115.76,115.76,0,0,0,19-37c5.35,1.5,10.29,2.71,15.63,4.18A237.83,237.83,0,0,0,621,335.61Z"/><path class="cls-4" d="M593.84,344.51c-.19,9.27-21.58,14.75-30.35,3.48"/><circle class="cls-4" cx="547.81" cy="380.79" r="1.33" transform="translate(33.25 805.44) rotate(-74.34)"/><path class="cls-4" d="M600.52,359c-.18,4.71,1.74,9.22,2.1,13.95a38.29,38.29,0,0,1-1.24,10.39,126.38,126.38,0,0,1-4.71,17.95"/><path class="cls-4" d="M502.2,337.34c-.89,6.08-3.73,11.66-6,17.34s-4.15,11.82-3,17.92"/><path class="cls-4" d="M539.67,409.21a101.41,101.41,0,0,1-8,26.81"/><path class="cls-18" d="M584.91,206.05c-32.07-7.55-63.41,9.16-70,37.31-3.5,14.9.63,30,10,42a5.71,5.71,0,0,0,.79-2.19,5.71,5.71,0,0,1-.79,2.19A64.32,64.32,0,0,0,561,308c32.06,7.55,63.41-9.18,70-37.33S617,213.58,584.91,206.05Z"/><ellipse class="cls-6" cx="559.7" cy="254.91" rx="14.74" ry="11.24" transform="translate(11.76 534.2) rotate(-51.5)"/><ellipse class="cls-6" cx="584.01" cy="260.65" rx="14.74" ry="11.24" transform="translate(269.02 817.24) rotate(-84.55)"/><circle class="cls-7" cx="565.43" cy="255.85" r="1.43"/><circle class="cls-7" cx="579.59" cy="257.7" r="1.43"/><polygon class="cls-8" points="586.87 286.58 577.43 295.51 568.61 286.5 586.87 286.58"/><path class="cls-16" d="M634.53,261.43c-12.32-4.11-22.86-12.29-32.21-21.29s-17.33-19.52-27-28.23a64.13,64.13,0,0,1-21.92,14.26,130.59,130.59,0,0,1-15.25,4.61c-7.17,1.81-14.59,3.65-21.9,2.51.8-11.25,8.37-21.16,17.73-27.2s20.56-9,31.57-11.24a47.77,47.77,0,0,1,14.49-1.36,41.12,41.12,0,0,1,14.25,4.82c17.68,9,33,23.34,41.85,41.2-1,3.3.18,6.74.43,10.22a43.68,43.68,0,0,1-.5,8.92A5.17,5.17,0,0,1,634.53,261.43Z"/><line class="cls-10" x1="566.56" y1="236.51" x2="551.05" y2="239.45"/><line class="cls-10" x1="588.23" y1="241.92" x2="598.53" y2="250.61"/><ellipse class="cls-11" cx="531.86" cy="331.36" rx="1.39" ry="2.35" transform="translate(87.61 773.31) rotate(-76.78)"/><ellipse class="cls-11" cx="576.6" cy="341.86" rx="1.39" ry="2.35" transform="translate(111.9 824.96) rotate(-76.78)"/><path class="cls-4" d="M517,326.43c-4,8.39,12.72,22.82,25.64,16.66"/><path class="cls-13" d="M522.84,179.87,527.28,164c3.63-12.94,13.83-21.51,22.66-19l113.31,31.77c8.83,2.48,13.08,15.1,9.45,28l-4.44,15.84"/><path class="cls-13" d="M604.7,448.18l-5,18c-4.1,14.65-14.66,24.64-23.53,22.16L462.77,456.7c-8.83-2.47-12.7-16.46-8.59-31.11l5-18"/><rect class="cls-13" x="376.01" y="291.19" width="236.16" height="6.53" transform="translate(77.17 690.7) rotate(-74.34)"/><rect class="cls-13" x="515.4" y="330.28" width="236.16" height="6.53" transform="translate(141.28 853.44) rotate(-74.34)"/><circle class="cls-14" cx="601.33" cy="175.26" r="3.72"/><circle class="cls-14" cx="578.66" cy="181.59" r="1.88"/><rect class="cls-14" x="597" y="172.88" width="3.77" height="28.78" rx="1.88" transform="translate(256.87 713.34) rotate(-74.34)"/><circle class="cls-15" cx="525.22" cy="449.98" r="12.24"/></g><g id="Layer_4" data-name="Layer 4"><rect x="266.26" y="382.72" width="33.91" height="20.74" transform="translate(-105.25 103.57) rotate(-17.53)"/><rect x="531.84" y="391.14" width="20.74" height="33.91" transform="translate(24.4 846.73) rotate(-77.23)"/><rect x="511.3" y="329.4" width="90.46" height="23.9" transform="translate(89.18 -114.54) rotate(12.77)"/><path class="cls-19" d="M147.32,155.28a23.46,23.46,0,0,0,2.48-2.3,12.38,12.38,0,0,0,2-2.88,6.87,6.87,0,0,0,.73-3.33,6.44,6.44,0,0,0-1.47-3.65,7.9,7.9,0,0,0-4.86-3.15,16.75,16.75,0,0,0-6.39.06,44.86,44.86,0,0,0-7.19,2c-2.49.91-4.94,1.77-7.32,2.57a41,41,0,0,1-6.72,1.68,8.89,8.89,0,0,1-5.54-.73,10.17,10.17,0,0,1-4.34-1.85,20.65,20.65,0,0,1-3.61-3.12,15.42,15.42,0,0,1-3.77-6.81,11.28,11.28,0,0,1,.43-6.25,17.46,17.46,0,0,1,3.48-5.63,46.4,46.4,0,0,1,5.39-5.1c1.37-1.09,2.89-2.24,4.64-3.42a36.13,36.13,0,0,1,5.47-3.13,22.65,22.65,0,0,1,5.78-1.84,12.4,12.4,0,0,1,5.65.24,21.51,21.51,0,0,1,4,1.76,10.07,10.07,0,0,1,3.31,3l.23.32q-5,3.82-9.92,7.79c-1.41-.53-2.78-1-4.1-1.37a15.28,15.28,0,0,0-3.74-.59,10.4,10.4,0,0,0-3.54.55,11.51,11.51,0,0,0-3.6,2,22.66,22.66,0,0,0-2.07,1.84,9.35,9.35,0,0,0-1.63,2.22,4.5,4.5,0,0,0-.51,2.52,4.93,4.93,0,0,0,1.29,2.74,4.13,4.13,0,0,0,3.47,1.23,25.27,25.27,0,0,0,5.47-.81q3.08-.73,6.53-1.89l6.73-2.25q3.27-1.09,5.95-1.83a18.08,18.08,0,0,1,4.19-.76,8.46,8.46,0,0,1,3.26.6,12.76,12.76,0,0,1,3,1.69,20.17,20.17,0,0,1,2.63,2.35,24.66,24.66,0,0,1,2.21,2.67,29.18,29.18,0,0,1,1.9,3c.62,1.15,1.18,2.33,1.68,3.53a38.33,38.33,0,0,1,1.26,3.65,11.59,11.59,0,0,1,.48,3.32,8.78,8.78,0,0,1-1,4,23.94,23.94,0,0,1-2.54,4.05,34.73,34.73,0,0,1-3.15,3.59,37.31,37.31,0,0,1-3,2.74,42.21,42.21,0,0,1-6.92,4.52,18.46,18.46,0,0,1-7.15,2,16.9,16.9,0,0,1-7.59-1.3,27.33,27.33,0,0,1-8.21-5.58c1.49-1.31,3-2.61,4.59-3.88a43.83,43.83,0,0,0,4.44-4.18,10.31,10.31,0,0,0,2.32,2.2,31.43,31.43,0,0,0,3.35,2.11,18.58,18.58,0,0,0,3.54,1.49,6.41,6.41,0,0,0,2.91.32A6.48,6.48,0,0,0,145,157C146,156.3,146.74,155.74,147.32,155.28Z"/><path class="cls-19" d="M193.5,130.46l-11-18.36q-6.09,3.7-12.1,7.62Q176,128.89,181.54,138q-6.15,4.06-12.27,8.35c.56-.65.65-1.81.27-3.47a34.71,34.71,0,0,0-2-5.71c-.91-2.16-2-4.44-3.31-6.85s-2.55-4.68-3.76-6.84-2.36-4-3.38-5.62-1.73-2.69-2.12-3.26c-1-1.5-2.22-3.13-3.58-4.89a55.47,55.47,0,0,0-4.42-5,42,42,0,0,0-5-4.38,15.75,15.75,0,0,0-5.39-2.64q-.62-.15-1.53-.3a4.15,4.15,0,0,0-1.57,0q8.13-4.62,16.34-8.89,8,11.92,16,23.84,5.86-3.83,11.85-7.46L162.5,80.48q6.39-3.9,12.88-7.58a13.67,13.67,0,0,0,.84,3.85q.81,2.32,1.95,5c.77,1.82,1.63,3.68,2.59,5.6s1.89,3.77,2.84,5.54,1.81,3.39,2.6,4.84,1.45,2.6,1.93,3.42c.31.56.89,1.53,1.72,2.9s1.78,2.91,2.86,4.61,2.26,3.42,3.53,5.23a58.16,58.16,0,0,0,3.79,4.79,22.11,22.11,0,0,0,3.59,3.31,3.31,3.31,0,0,0,3,.76Q200,126.53,193.5,130.46ZM207,122.62a.75.75,0,0,0-.17.14.21.21,0,0,1-.22.08Z"/><path class="cls-19" d="M237.62,107.41a37.28,37.28,0,0,0-1.58-3.47,27.79,27.79,0,0,0-1.66-2.77,31,31,0,0,0-2-2.59q-1.08-1.26-2.49-2.82-8.58,4.17-17,8.74a52.74,52.74,0,0,0,1,6.74,25.88,25.88,0,0,0,2.43,6.56c-2.64,1.37-5.27,2.8-7.88,4.26Q205.94,107,203,91.85T197.4,61.38q10-4,20.08-7.53,8.64,12,17.31,23.78t17.45,23.49Q244.89,104.09,237.62,107.41ZM212,96.12q6.79-3.21,13.69-6.16-8.34-11-17-21.7c-1.11.32-2.22.69-3.34,1Q208.53,82.75,212,96.12Z"/><path class="cls-19" d="M292,87.21q-6.72,2-13.38,4.2c-2.06-2.3-4.14-4.59-6.26-6.84s-4.27-4.47-6.45-6.63c-1-1-2.06-2.09-3.23-3.37a18.2,18.2,0,0,0-3.42-3,4,4,0,0,0-.69-.47,1,1,0,0,0-.87-.07c-.28.11-.46.43-.53,1q4.41,11.94,8.8,23.87-5.36,2-10.7,4.1-2.47-7.12-4.91-14.1t-5.22-14q-2.7-6.78-6-13.36t-6.85-13q14.79-6,29.88-10.89a1.57,1.57,0,0,1,.53,0,7,7,0,0,1,.92.12,9.45,9.45,0,0,1,1,.2,5.12,5.12,0,0,1,.56.15,14.48,14.48,0,0,1,6.68,4,17.66,17.66,0,0,1,3.91,7,16.84,16.84,0,0,1,.75,5.73,17.66,17.66,0,0,1-1.06,5.33A17.2,17.2,0,0,1,269,65.34Q281,76,292,87.21ZM254.24,63.32a11.91,11.91,0,0,0,2.21-.55,14.92,14.92,0,0,0,3.19-1.61,8.1,8.1,0,0,0,3.63-5.64,8.44,8.44,0,0,0-.48-4.1,10.81,10.81,0,0,0-3.87-5.8c-1.66-1.13-3.77-1.25-6.29-.36a15,15,0,0,0-2.38,1.08c-.69.4-1.5.81-2.32,1.23Z"/><path class="cls-19" d="M294.52,86.49q-2.06-7.68-4.06-15.29T286.27,56c-1.28-4.42-2.6-8.79-4-13.13s-2.77-8.69-4.18-13.07q6.12-1.86,12.32-3.54,1.65,6.71,3.23,13.34T297,52.87q2,7.68,4.26,15.22t4.41,15.19Q300,84.81,294.52,86.49Z"/><path class="cls-19" d="M335.55,51.26q-1-5.35-2.26-10.68-1.37-5.62-3-11.12t-3.24-11c3.44-.61,6.87-1.18,10.32-1.71q.67,5.67,1.23,11.38t1.46,11.34c.19,1.22.37,2.3.55,3.24s.38,1.88.58,2.79.42,1.86.63,2.83.45,2.06.69,3.19q2.43,12,4.79,24-8.54,1.31-17,3-2.91-5.88-5.9-11.79T318,55.12q-2.46-4.07-5.24-8l-5.56-7.8q.9,4.74,1.85,9.42c.63,3.13,1.31,6.25,2.05,9.38A26.13,26.13,0,0,0,312.28,62c.43,1,.87,2.29,1.32,3.73Q316,73.34,318.45,81q-4.18.95-8.35,2-1.47-6.68-2.89-13.3t-3-13.26q-2-7.94-4.4-15.64T294.18,25.5q10.62-2.67,21.32-4.84,3.48,7.18,6.84,14.42c.67,1.4,1.21,2.6,1.63,3.61s1,2.21,1.7,3.59,1.43,2.43,2,3.3,1.26,1.94,2.05,3.21q4,6.56,7.89,13.18Q336.53,56.63,335.55,51.26Z"/><path class="cls-19" d="M385.23,49.22c.06,1.18.11,2.56.11,4.11s-.07,3.21-.2,4.88-.32,3.28-.56,4.8a18.25,18.25,0,0,1-.94,3.84,7.51,7.51,0,0,1-2.47,3.31,13.14,13.14,0,0,1-3.62,1.93,23.58,23.58,0,0,1-4.06,1c-1.37.2-2.61.36-3.63.46-1.37.14-2.82.25-4.34.33a23.78,23.78,0,0,1-4.3-.12,5.8,5.8,0,0,1-1.9-.57,19.58,19.58,0,0,1-1.87-1,15.18,15.18,0,0,1-5.06-5,34.46,34.46,0,0,1-3.42-7,51.7,51.7,0,0,1-2.16-7.91q-.8-4.11-1.32-7.68a31.68,31.68,0,0,1-.17-7.6A34.68,34.68,0,0,1,347,29.28a31.88,31.88,0,0,1,3.29-7,22,22,0,0,1,4.73-5.4,17.53,17.53,0,0,1,5-2.78,24.33,24.33,0,0,1,5.67-1.17,37.2,37.2,0,0,1,4.48-.17,16.51,16.51,0,0,1,4.3.69,13.94,13.94,0,0,1,3.92,1.85,12.86,12.86,0,0,1,3.34,3.32q.45,5.6.89,11.2-6.22.57-12.44,1.33c-.19-1.48-.34-3-.45-4.51s-.29-3-.54-4.51a3.17,3.17,0,0,0-.63-1.59,6.13,6.13,0,0,0-1.34-1.25,6,6,0,0,0-1.66-.77,4.37,4.37,0,0,0-1.53-.18,3,3,0,0,0-2.18,1.23,10.33,10.33,0,0,0-1.37,2.61,20.41,20.41,0,0,0-.87,3.08c-.21,1.05-.4,1.93-.57,2.65a27.7,27.7,0,0,0-.81,7.53q.1,3.79.56,7.69c.15,1.22.35,2.75.59,4.58s.56,3.69.93,5.59.78,3.7,1.22,5.42a20.66,20.66,0,0,0,1.45,4.2,4.43,4.43,0,0,0,1.32,1.47,7.93,7.93,0,0,0,1.88,1,12.17,12.17,0,0,0,2.05.55,6.28,6.28,0,0,0,1.73.11,4.43,4.43,0,0,0,1.37-.37c.5-.26.87-1.21,1.11-2.84s.39-3.42.49-5.47.13-3.91.13-5.73V47.87q-4.11.32-8.18.68-.39-3.3-.79-6.61,10.08-1.08,20.21-1.73c.21,1.49.41,3,.58,4.44S385.1,47.67,385.23,49.22Z"/><path class="cls-19" d="M411,70q.15-7.95.35-15.81t.2-15.8q0-6.9-.18-13.69T411,11q6.35-.07,12.69,0-.28,6.9-.6,13.69t-.5,13.69q-.21,7.94-.14,15.81t0,15.81Q416.68,70,411,70Z"/><path class="cls-19" d="M446.84,65.2a19.12,19.12,0,0,0,3.21,0,10.9,10.9,0,0,0,3.29-.73,6.22,6.22,0,0,0,4.05-5.58,8.07,8.07,0,0,0-1.3-5.61,16,16,0,0,0-4.46-4.3,41.37,41.37,0,0,0-6.27-3.42q-3.45-1.56-6.68-3.12A36.85,36.85,0,0,1,433,39.07a8.74,8.74,0,0,1-3.3-4.32,10.59,10.59,0,0,1-1.77-4.32,21.57,21.57,0,0,1-.44-4.74,15.44,15.44,0,0,1,1.83-7.53,11.15,11.15,0,0,1,4.33-4.26,15.78,15.78,0,0,1,6-1.76,41,41,0,0,1,7-.05c1.63.12,3.42.33,5.43.64a33.15,33.15,0,0,1,5.8,1.41,21.06,21.06,0,0,1,5.21,2.57,12.28,12.28,0,0,1,3.77,4,22.67,22.67,0,0,1,1.61,4,10.61,10.61,0,0,1,.36,4.41l0,.4q-6-.6-12-1c-.64-1.37-1.28-2.61-1.94-3.78a15.25,15.25,0,0,0-2.19-3,9.92,9.92,0,0,0-2.8-2,10.52,10.52,0,0,0-3.82-.94,19.24,19.24,0,0,0-2.63,0,8.32,8.32,0,0,0-2.56.51,4.3,4.3,0,0,0-2,1.49,5.1,5.1,0,0,0-.89,2.88,4.2,4.2,0,0,0,1.57,3.27,24.65,24.65,0,0,0,4.27,3.13c1.73,1,3.65,2.05,5.73,3.07l6.11,2.93q3,1.43,5.32,2.7A16.75,16.75,0,0,1,464.42,41a8.26,8.26,0,0,1,1.88,2.65,13.79,13.79,0,0,1,1,3.28,20.6,20.6,0,0,1,.28,3.51,27.91,27.91,0,0,1-.21,3.42,33.79,33.79,0,0,1-.69,3.47,37.6,37.6,0,0,1-1.16,3.74A35.4,35.4,0,0,1,464,64.64a11.69,11.69,0,0,1-1.84,2.73,8.4,8.4,0,0,1-3.35,2.32,21.67,21.67,0,0,1-4.42,1.25,32.54,32.54,0,0,1-4.52.49,33.15,33.15,0,0,1-3.86-.07A36.46,36.46,0,0,1,438.31,70a15.92,15.92,0,0,1-10.58-9.53,28.87,28.87,0,0,1-2-9.7c1.86.06,3.74.16,5.63.3a36.79,36.79,0,0,0,5.75,0,10.29,10.29,0,0,0,.17,3.18,29.79,29.79,0,0,0,.92,3.84,19.56,19.56,0,0,0,1.46,3.51,6.42,6.42,0,0,0,1.79,2.22,6,6,0,0,0,2.6,1A23.43,23.43,0,0,0,446.84,65.2Z"/><path class="cls-19" d="M522.56,42.16a23.8,23.8,0,0,0,.57-4.28,8.19,8.19,0,0,0-.68-3.72A3.88,3.88,0,0,0,519.62,32a5.83,5.83,0,0,0-4.2.46A10.92,10.92,0,0,0,512,35.31a18.22,18.22,0,0,0-2.52,4.11A21.19,21.19,0,0,0,508,43.74c-.55,2.56-1.14,5.08-1.74,7.57s-1.2,5-1.75,7.59A28.35,28.35,0,0,0,504,63a22.8,22.8,0,0,0,.17,4.67,12.14,12.14,0,0,0,1.27,4.07,4.11,4.11,0,0,0,2.74,2.2,4.78,4.78,0,0,0,3.63-.37,7.93,7.93,0,0,0,2.58-2.51,18.32,18.32,0,0,0,1.91-3.74c.53-1.41,1-2.78,1.49-4.11q5.82,1.45,11.64,3.08a25.64,25.64,0,0,1-3.76,8.11,20,20,0,0,1-5.48,5.29,16.9,16.9,0,0,1-6.61,2.51,18.59,18.59,0,0,1-7.24-.31,11.76,11.76,0,0,1-4.15-1.85,18,18,0,0,1-3.42-3.17,25.09,25.09,0,0,1-2.81-4.11,32.24,32.24,0,0,1-2.12-4.72,26.87,26.87,0,0,1-1.3-10.27,87.82,87.82,0,0,1,1.37-10.57,24,24,0,0,1,1.11-4c.52-1.4,1.05-2.7,1.6-3.9a36.91,36.91,0,0,1,4.19-7.36,26,26,0,0,1,5.6-5.64,18.93,18.93,0,0,1,6.85-3.15,17.49,17.49,0,0,1,8,.13,26,26,0,0,1,8.51,3.49,13.1,13.1,0,0,1,4.68,5.43,16.8,16.8,0,0,1,1.37,7.47,44.36,44.36,0,0,1-1.59,9.7c-4.18-1.17-8.35-2.27-12.54-3.32C521.92,44.9,522.22,43.62,522.56,42.16Z"/><path class="cls-19" d="M552.44,94.52c.53-1.35,1-2.54,1.28-3.59a28.15,28.15,0,0,0,.76-3.14c.18-1.07.31-2.15.39-3.23s.14-2.36.19-3.76q-9-3-18.09-5.51a52.81,52.81,0,0,0-3.88,5.53,26.38,26.38,0,0,0-2.82,6.41c-2.82-.84-5.63-1.64-8.45-2.41q8.59-12.63,16.94-25.54t17.11-25.8q9.82,4.05,19.45,8.52-2.22,14.66-4.19,29.11t-3.85,29Q559.89,97.17,552.44,94.52ZM542.17,68.65q7,2.4,14,5,1.67-13.64,3-27.38l-3.06-1.6q-7.12,11.89-13.91,23.94Z"/><path class="cls-19" d="M605.79,118q-6.3-3.32-12.7-6.41c.12-3.09.2-6.17.23-9.27s0-6.18,0-9.27c0-1.37,0-2.92,0-4.67a18.46,18.46,0,0,0-.38-4.57,4,4,0,0,0-.19-.83,1,1,0,0,0-.58-.69c-.28-.13-.63,0-1.06.32L580.8,105.92q-5.26-2.34-10.57-4.51l6.3-13.55q3.12-6.7,6-13.69,2.79-6.73,5-13.79t4.19-14.1q14.77,6,29.21,13.08a2.22,2.22,0,0,1,.38.37c.19.22.39.46.59.74s.38.54.56.81.26.43.3.51a14.58,14.58,0,0,1,2.06,7.59,17.35,17.35,0,0,1-2.06,7.78,16.36,16.36,0,0,1-3.46,4.63,17.69,17.69,0,0,1-4.51,3.06,17.47,17.47,0,0,1-10.35,1.37Q605.6,102.24,605.79,118Zm-10.72-43.6a11,11,0,0,0,2,1.15,14.63,14.63,0,0,0,3.42,1.08,8,8,0,0,0,9.08-4.74,10.86,10.86,0,0,0,1.26-6.85c-.42-2-1.86-3.54-4.32-4.66a15.52,15.52,0,0,0-2.47-.9c-.81-.21-1.66-.46-2.54-.74q-3.19,7.83-6.42,15.66Z"/><path class="cls-19" d="M608.14,119.28q3.89-6.91,7.76-13.76t7.62-13.85q3.26-6.09,6.31-12.19l6.11-12.33q5.77,3,11.51,6.17-3.5,5.94-7,11.8T633.54,97q-3.91,6.9-7.53,13.88t-7.42,14Q613.37,122,608.14,119.28Z"/><path class="cls-19" d="M663.31,123.5q3.06-4.52,5.84-9.23,3-5,5.61-10.07t5.34-10.14q4.5,3.06,8.9,6.24-3.48,4.52-7.1,9t-6.92,9.1c-.69,1-1.37,1.9-1.87,2.74s-1.05,1.6-1.54,2.4L670.05,126c-.52.85-1.1,1.76-1.73,2.74Q661.66,139,655,149.25q-7.32-5.26-14.81-10.18,2-6.28,3.92-12.62t3.42-12.79q1-4.66,1.72-9.44t1.37-9.51q-2.67,4-5.27,8c-1.74,2.67-3.43,5.38-5.1,8.12a25.19,25.19,0,0,0-1.84,3.58c-.42,1-1,2.26-1.65,3.6q-3.57,7.18-7.16,14.34-3.77-2.31-7.53-4.54,3.6-5.79,7.22-11.53t7.09-11.64q4.11-7.05,7.76-14.28t6.62-14.85q9.71,5.63,19.17,11.76-2.49,7.62-5.08,15.18c-.49,1.47-.94,2.74-1.37,3.73a36.66,36.66,0,0,0-1.27,3.78,29.71,29.71,0,0,0-.83,3.79c-.19,1-.43,2.29-.73,3.76q-1.62,7.57-3.42,15.06Q660.26,128,663.31,123.5Z"/><path class="cls-19" d="M702.18,158.52c-.78.88-1.73,1.88-2.85,3s-2.32,2.22-3.61,3.3-2.55,2.08-3.8,3a18.09,18.09,0,0,1-3.42,2,7.71,7.71,0,0,1-4.22.5,14.52,14.52,0,0,1-4.11-1.32,26.43,26.43,0,0,1-3.77-2.31c-1.2-.89-2.22-1.67-3.07-2.36q-1.7-1.36-3.51-3a27.73,27.73,0,0,1-3.17-3.24,6.81,6.81,0,0,1-1-1.8,20.69,20.69,0,0,1-.68-2.06,15.29,15.29,0,0,1-.29-7.24,34.33,34.33,0,0,1,2.39-7.46,51.87,51.87,0,0,1,4-7.19c1.54-2.32,3-4.45,4.43-6.4a29.84,29.84,0,0,1,5.24-5.47,34.05,34.05,0,0,1,6.69-4.3,32.27,32.27,0,0,1,7.4-2.56,22.6,22.6,0,0,1,7.38-.36,18.66,18.66,0,0,1,5.72,1.68,26.69,26.69,0,0,1,5.11,3.36,40.84,40.84,0,0,1,3.51,3.2,18.68,18.68,0,0,1,2.79,3.65,15.68,15.68,0,0,1,1.67,4.22,13.58,13.58,0,0,1,.19,4.84l-7.24,8.6q-5.14-4.24-10.38-8.31c.91-1.2,1.85-2.37,2.85-3.52a41.63,41.63,0,0,0,2.74-3.6,2.91,2.91,0,0,0,.65-1.59,5.59,5.59,0,0,0-.13-1.87,5.74,5.74,0,0,0-.68-1.75,4.67,4.67,0,0,0-1-1.26,3.24,3.24,0,0,0-2.52-.74,10.46,10.46,0,0,0-2.88.84,19,19,0,0,0-2.84,1.54c-.9.59-1.66,1.07-2.3,1.45a26.54,26.54,0,0,0-5.92,4.74,73.94,73.94,0,0,0-5,5.86q-1.14,1.47-2.8,3.67T680.42,143c-1.06,1.61-2,3.19-2.92,4.74a19.81,19.81,0,0,0-1.86,4.05,4.36,4.36,0,0,0,0,2,7.84,7.84,0,0,0,.69,2.1,12.26,12.26,0,0,0,1.14,1.9,8,8,0,0,0,1.23,1.37,4.69,4.69,0,0,0,1.3.75c.56.19,1.51-.21,2.84-1.19a54.25,54.25,0,0,0,4.22-3.49q2.22-2,4.15-4c1.28-1.3,2.18-2.2,2.67-2.69q-3.32-2.81-6.68-5.55l4.1-5.26q8.4,6.65,16.54,13.76c-.92,1.21-1.81,2.4-2.69,3.58A40,40,0,0,1,702.18,158.52Z"/></g><g id="Layer_5" data-name="Layer 5"><path class="cls-20" d="M459.83,88.71q.72-6.25,1.1-12.54.44-6.65.58-13.26t.38-13.18l9.74,1.18q-1,6.5-2.09,13T467.63,77c-.17,1.41-.32,2.67-.4,3.77S467,83,467,84s-.14,2.19-.21,3.33-.17,2.39-.27,3.74l-2.29,28.15L445.83,117q-1-7.48-1.86-15t-2.17-15q-.93-5.32-2.15-10.62T437.29,66q-.85,5.49-1.65,10.94t-1.48,11a32.61,32.61,0,0,0-.28,4.63q0,2-.09,4.56l-.85,18.43-9.05-1.1q1.13-7.77,2.29-15.51t2.11-15.53q1.14-9.37,1.74-18.67t.63-18.7L451,48.41l1.56,18.17c.16,1.76.29,3.27.34,4.51s.21,2.78.43,4.53a35.38,35.38,0,0,0,.86,4.29c.28,1.16.57,2.56.93,4.24l3.52,17.1Q459.13,95,459.83,88.71Z"/><path class="cls-20" d="M471.31,84.32a64.72,64.72,0,0,1,3-13.24,34.18,34.18,0,0,1,5.44-10.3,21.66,21.66,0,0,1,7.89-6.31A18.68,18.68,0,0,1,498,53.06a17.74,17.74,0,0,1,9.3,3.73,21.11,21.11,0,0,1,5.86,7.85,34.42,34.42,0,0,1,2.68,10.94,62,62,0,0,1-.27,13.06,58.5,58.5,0,0,1-3,12.64,46.23,46.23,0,0,1-5.73,11.19,28,28,0,0,1-8,7.69,14.85,14.85,0,0,1-9.87,2.17,16.47,16.47,0,0,1-9.47-4.18,23.37,23.37,0,0,1-5.81-8.72A40.6,40.6,0,0,1,471,97.66,66.85,66.85,0,0,1,471.31,84.32ZM490.05,111a4.26,4.26,0,0,0,1.38,0c.41-.07.87-.17,1.41-.29A9.46,9.46,0,0,0,497.9,107a24.62,24.62,0,0,0,3.2-6.48,46.23,46.23,0,0,0,1.87-7.7c.42-2.69.77-5.2,1-7.51s.47-4.58.63-7.15a32.21,32.21,0,0,0-.34-7.21,13.91,13.91,0,0,0-2.2-5.71,6.6,6.6,0,0,0-4.93-2.73,8.2,8.2,0,0,0-6.54,1.68,15.58,15.58,0,0,0-4.2,5.73A37.43,37.43,0,0,0,484,77.83c-.57,2.92-1,5.73-1.34,8.41q-.39,3.32-.53,7.44a37.53,37.53,0,0,0,.55,7.85,17.25,17.25,0,0,0,2.39,6.39,6.64,6.64,0,0,0,5,3.09Z"/><path class="cls-20" d="M554.92,69.55l-13-2.22q-1.94,14.49-3.2,29.9t-2,30l-16.35-2L524,104.31l1-5.24q.41-2.14.78-5.26.85-7.08,1.6-14t1.51-14l-12.93-.91L517,55.55q4.93.8,9.72,1.69c3.19.61,6.43,1.11,9.74,1.51s6.6.69,9.87.86,6.57.41,9.89.68Z"/></g></g></svg>
