<svg xmlns="http://www.w3.org/2000/svg" xmlns:xlink="http://www.w3.org/1999/xlink" width="708.55" height="236.24" viewBox="0 0 708.55 236.24"><defs><style>.cls-1,.cls-17,.cls-20,.cls-28,.cls-31,.cls-35{fill:none;}.cls-16,.cls-2,.cls-8{fill:#fff;}.cls-16,.cls-17,.cls-2,.cls-20,.cls-31,.cls-32,.cls-35,.cls-37,.cls-9{stroke:#1d1d1b;}.cls-10,.cls-11,.cls-14,.cls-16,.cls-17,.cls-2,.cls-20,.cls-28,.cls-31,.cls-32,.cls-35,.cls-37,.cls-40,.cls-9{stroke-miterlimit:10;}.cls-14,.cls-2,.cls-35,.cls-37,.cls-40{stroke-width:0.25px;}.cls-3{clip-path:url(#clip-path);}.cls-4{fill:#73727a;}.cls-5{fill:#96939e;}.cls-6{fill:#57565c;}.cls-7{fill:#a5a1b0;}.cls-10,.cls-11,.cls-15,.cls-32,.cls-37,.cls-9{fill:#1d1d1b;}.cls-11,.cls-9{stroke-width:3px;}.cls-10,.cls-11{stroke:#575756;}.cls-12{fill:#f9b233;}.cls-13,.cls-14{fill:#ffe1aa;}.cls-14,.cls-40{stroke:#ca9e67;}.cls-16,.cls-31,.cls-32{stroke-width:0.5px;}.cls-18{fill:#a0bbe3;}.cls-19{fill:#72b95c;}.cls-20{stroke-width:0.75px;}.cls-21{clip-path:url(#clip-path-8);}.cls-22{fill:#5d5b6d;}.cls-23{fill:#474754;}.cls-24{fill:#be7084;}.cls-25{fill:#c42057;}.cls-26{fill:#4d0929;}.cls-27{fill:#efe9a1;}.cls-28{stroke:#cbad4e;stroke-width:0.08px;}.cls-29{fill:#841710;}.cls-30{fill:#362846;}.cls-33{fill:#fff379;}.cls-34{fill:#f6a976;}.cls-36{fill:#e0a2c9;}.cls-38{fill:#683c11;}.cls-39,.cls-40{fill:#d0ad86;}</style><clipPath id="clip-path"><rect class="cls-1" x="31.78" y="42.36" width="269.79" height="151.75"/></clipPath><clipPath id="clip-path-8"><rect class="cls-1" x="224.34" y="83.35" width="155.07" height="87.23"/></clipPath></defs><title>SpilElementer</title><g id="Layer_2" data-name="Layer 2"><g id="Layer_1-2" data-name="Layer 1"><rect class="cls-2" x="123.31" y="32.11" width="108.68" height="172.26"/><g class="cls-3"><g class="cls-3"><path class="cls-4" d="M199,171.92c5.69-3.71,12.56-9.59,14-18,3.08-17.32-18.85-33.25-15.88-36.67,1.86-2.14,12.49,1.7,18.83,9.69,9.93,12.51,8,33.43-3.65,44.69a32.11,32.11,0,0,1-15.88,8.14"/></g><g class="cls-3"><path class="cls-5" d="M179.46,110.93c6.66,3,10,8.59,13.63,14.76,6.91,11.65,7.31,22.43,7.73,33.86.61,16.88-3.26,21-4.36,22.06-2.66,2.57-5.56,3.25-11.24,4.5A67.5,67.5,0,0,1,156,186c-10.77-2.48-16.92-3.9-20.79-9.42s-3-11.83-1.41-24.45c2-15.33,3-23,7.73-29.08,8.34-10.74,25.27-17.82,37.94-12.09"/></g><g class="cls-3"><path class="cls-4" d="M165.8,184.75c-.08,4.81-5.47,5.53-11.75,5.43s-11.09-1-11-5.81,5.25-8.62,11.53-8.52,11.32,4.09,11.23,8.9"/><path d="M156.3,189.7c0,.8-.91.92-2,.9s-1.85-.16-1.84-1a2,2,0,0,1,3.84.14"/><path d="M161.81,188.83c.16.78-.7,1.09-1.72,1.29s-1.85.23-2-.56a2,2,0,0,1,3.72-.73"/><path d="M150.45,189.57c-.18.78-1.09.71-2.11.47s-1.77-.55-1.59-1.33a1.72,1.72,0,0,1,2.18-1c1,.24,1.7,1.06,1.52,1.84"/><path class="cls-4" d="M190.42,184.56c0,4.81-5.38,5.62-11.66,5.62s-11.11-.81-11.11-5.62,5.1-8.71,11.39-8.71,11.38,3.9,11.38,8.71"/><path d="M181,189.67c0,.8-.89.93-1.94.93s-1.85-.13-1.85-.93a2,2,0,0,1,3.79,0"/><path d="M186.5,188.7c.16.79-.68,1.11-1.71,1.33s-1.84.25-2-.53a2,2,0,0,1,3.71-.82"/><path d="M175.15,189.64c-.17.78-1.08.73-2.1.51s-1.78-.52-1.61-1.31a2,2,0,0,1,3.71.8"/></g><g class="cls-3"><path class="cls-6" d="M165.13,116a7.45,7.45,0,1,1-7.45-7.45h0a7.47,7.47,0,0,1,7.45,7.45"/><path class="cls-7" d="M184.71,104.89c0,4.89-3.53,13.5-14.48,15-.72.1-6.84-2.18-10.67-3.94a7.18,7.18,0,0,1-2.53-2.11c-.9,0-1,1.2-1.27,2a7.6,7.6,0,0,1-1.83,2.81c-2.8,3.16-8.21,6.32-9.55,6.32-14.46.09-15.95-13.06-15.95-20.65,0-15,12.8-27.19,28.6-27.19a27.59,27.59,0,0,1,27.68,27.5v.26"/></g><polygon points="152.69 110.65 159.1 109.96 156.94 113.57 152.69 110.65"/><rect x="124.03" y="116.19" width="32.74" height="0.84" transform="translate(-31.86 56.31) rotate(-20.42)"/><rect x="125.71" y="120.98" width="32.74" height="0.84" transform="translate(-43.77 101.8) rotate(-34.49)"/><rect x="172.85" y="100.26" width="0.84" height="32.74" transform="translate(17.09 255.32) rotate(-75.55)"/><rect x="173.27" y="96.45" width="0.84" height="32.74" transform="translate(45.05 275.15) rotate(-84.61)"/><g class="cls-3"><path class="cls-8" d="M172.65,96.72c2.09,5.6,0,11.57-4.78,13.33s-10.25-1.36-12.34-7,.06-11.57,4.79-13.33,10.25,1.35,12.33,7"/><path d="M172,93.26c.73,3.35-2.71,2.89-7.64,4-3.61.78-7.52,2.53-9.42,1.94-.69-.21-.75-1-.94-1.89-.73-3.35,2.83-7.07,7.76-8.14S171.3,90,172,93.3"/><path class="cls-8" d="M136.28,101.26c-1.49,5.79,1.26,11.5,6.14,12.76s10.06-2.42,11.55-8.21-1.26-11.48-6.15-12.74-10,2.42-11.54,8.21"/><path d="M136.18,100.66c-1.27,5.84,2.36,4.52,7.29,5.59,3.6.78,7.38,3.17,9.43,1.87.75-.47.93-1.8,1.27-3.37,1.26-5.84-1.84-11.66-6.77-12.73s-10,2.8-11.22,8.64"/></g><polygon class="cls-7" points="131.12 95.9 129.43 94.07 129.43 85.36 128.45 69.76 126.91 67.51 126.91 64.56 129.01 63.02 131.82 63.02 135.48 62.46 137.73 63.3 147.28 79.88 142.35 82.65 137.02 86.2 133.51 90.14 131.12 95.9"/><polygon class="cls-7" points="178.51 88.89 179.58 86.65 177.01 78.32 173.34 63.13 174.15 60.53 173.28 57.71 170.81 56.85 168.12 57.69 164.47 58.23 162.57 59.7 158.34 78.36 163.87 79.55 170.01 81.37 174.53 84.09 178.51 88.89"/><g class="cls-3"><path d="M166.25,97.44a1.55,1.55,0,1,0,1.56-1.54h0a1.54,1.54,0,0,0-1.55,1.53h0"/><path d="M139.27,108.4a1.41,1.41,0,1,0,1.42-1.4h0a1.42,1.42,0,0,0-1.41,1.4"/><polygon class="cls-6" points="132.55 85.5 131.59 84.45 131.59 79.47 131.02 70.54 130.14 69.25 130.14 67.56 131.34 66.68 132.95 66.68 135.04 66.36 136.33 66.84 141.8 76.33 138.98 77.92 135.93 79.95 133.92 82.2 132.55 85.5"/><polygon class="cls-6" points="174.47 80.1 175.04 78.79 173.44 74.07 171.09 65.44 171.52 63.94 170.97 62.34 169.55 61.89 168.02 62.41 165.94 62.78 164.88 63.65 162.76 74.39 165.94 74.99 169.48 75.93 172.11 77.41 174.47 80.1"/></g></g><path class="cls-9" d="M121.35,31.26V19.4c0-9.67,5.4-17.59,12-17.59H218c6.6,0,12,7.92,12,17.59V31.26"/><path class="cls-9" d="M230.2,201.19v13.42c0,11-5.37,19.92-12,19.93l-84.68.13c-6.6,0-12-8.94-12-19.89V201.35"/><rect class="cls-9" x="121.35" y="31.25" width="4.7" height="169.94"/><rect class="cls-9" x="225.52" y="31.25" width="4.7" height="169.94"/><circle class="cls-10" cx="174.84" cy="12.8" r="2.68"/><circle class="cls-10" cx="160.36" cy="21.59" r="1.35"/><rect class="cls-10" x="165.12" y="20.24" width="20.71" height="2.71" rx="1.35"/><circle class="cls-11" cx="175.48" cy="217.93" r="8.81"/><rect class="cls-2" x="3.15" y="32.13" width="108.68" height="172.26"/><path class="cls-12" d="M7.32,136.46a.76.76,0,0,1-.06.36v-.37Z"/><path class="cls-13" d="M104,118.87c-.26-1.09-.63-2.31-1.64-2.79-.73-1.25-1.31-2.5-2.11-3.71a55,55,0,0,0-5.42-7,42.35,42.35,0,0,0-7.32-6.31c-20.46-.28-41.37-.08-61.83.47q-3.54,4.47-7,9A49.8,49.8,0,0,0,12.44,118c-2,4.47-2.74,9.42-3.41,14.28-1.71,12.41-3.42,25-1.52,37.42a26.35,26.35,0,0,0,11-1.42c-.16,4.1,1.29,8.18,2.63,12.05a206.37,206.37,0,0,1,7.36,27c19.43-.52,38.91-.8,58.35-1.32a29.56,29.56,0,0,1,2.49-6.56,85.85,85.85,0,0,0,7.52-29.95c4.09.14,7.9.21,12,.36A176.1,176.1,0,0,0,104,118.87Z"/><path class="cls-14" d="M55.94,31.41c-24.44,0-44.23,17.39-44.23,38.85,0,11.35,5.54,21.55,14.38,28.66a4.35,4.35,0,0,0,.2-1.72,4.35,4.35,0,0,1-.2,1.72A47.63,47.63,0,0,0,56,109.1c24.43,0,44.24-17.39,44.24-38.84S80.37,31.41,55.94,31.41Z"/><ellipse class="cls-8" cx="46.02" cy="71" rx="10.94" ry="8.34" transform="translate(-37.83 82.3) rotate(-64.72)"/><ellipse class="cls-8" cx="64.56" cy="70.99" rx="8.34" ry="10.94" transform="translate(-9.02 9.39) rotate(-7.78)"/><circle class="cls-15" cx="50.32" cy="70.69" r="1.06"/><circle class="cls-15" cx="60.86" cy="69.63" r="1.06"/><polygon class="cls-16" points="71.02 89.26 65.71 97.3 57.82 92.29 71.02 89.26"/><path class="cls-15" d="M101.18,63c-9.59-.88-18.6-5-26.88-9.91S58.47,41.93,50,37.26a48,48,0,0,1-13.41,14,99.71,99.71,0,0,1-10.28,5.9c-4.87,2.53-9.92,5.12-15.4,5.5C9.71,54.48,13.4,46,19.19,40S32.51,30.1,40.07,26.61a35.37,35.37,0,0,1,10.24-3.45,30.43,30.43,0,0,1,11.11,1.1C75.71,27.75,89.21,35.48,98.6,46.88c-.18,2.55,1.27,4.84,2,7.28a33.59,33.59,0,0,1,1.15,6.53A3.8,3.8,0,0,1,101.18,63Z"/><line class="cls-17" x1="47.86" y1="56.53" x2="37.15" y2="61.29"/><line class="cls-17" x1="64.42" y1="56.76" x2="73.35" y2="61.29"/><path class="cls-18" d="M27.63,207.53c19.69-1.3,39.44-2.15,59.17-2.14,5.57-13.82,11.35-28.24,10.24-43.1-26.54-1.4-53.15,4.44-79.63,2.11-.32,3.68,1.15,7.7,2.21,11.25A309.59,309.59,0,0,1,27.63,207.53Z"/><path class="cls-19" d="M109.06,149.79c-4,.14-7.81.16-11.79.3a175.2,175.2,0,0,1-.15,17.9c-26.28,0-52.4-.2-78.69-.21a68.49,68.49,0,0,1-1.25-16.6H5.94c-.09-13.62,2.17-27.83,10.18-38.84,3.08-4.25,7.55-8.5,9.3-13.45,15.76,7.94,34.17,12.35,51.17,7.62,4.62-1.28,9.49-3.64,11.24-8.11,7.91,5.42,13.7,14.39,16.89,23.43S108.91,140.26,109.06,149.79Z"/><path class="cls-20" d="M58.35,179.09l.42,27.22"/><path class="cls-20" d="M17.71,168l-.4-15.32a26.85,26.85,0,0,1,.13-4.39,13.58,13.58,0,0,1,1.49-4.56"/><path class="cls-20" d="M95.27,142.8c-.26,2.21.71,4.34,1.34,6.46,1.72,5.73,1.06,11.86.39,17.8,0,.44-.4,1-.76.78"/><path class="cls-9" d="M1.5,31.26V19.42c0-9.67,5.4-17.59,12-17.59H98.18c6.6,0,12,7.92,12,17.59V31.26"/><path class="cls-9" d="M110.35,201.26v13.42c0,10.95-5.37,19.92-12,19.93l-84.64.08c-6.6,0-12-8.94-12-19.89V201.37"/><rect class="cls-9" x="1.5" y="31.27" width="4.7" height="169.94"/><rect class="cls-9" x="105.67" y="31.27" width="4.7" height="169.94"/><circle class="cls-10" cx="54.99" cy="12.82" r="2.68"/><circle class="cls-10" cx="40.51" cy="21.61" r="1.35"/><rect class="cls-10" x="45.27" y="20.26" width="20.71" height="2.71" rx="1.35"/><circle class="cls-11" cx="55.63" cy="217.95" r="8.81"/><rect class="cls-2" x="240.33" y="27.53" width="108.68" height="172.26"/><g class="cls-21"><g class="cls-21"><path class="cls-22" d="M348.26,144.86c0,9.48-22.62,17.16-50.53,17.16s-50.54-7.68-50.54-17.16,22.63-17.16,50.52-17.16,50.53,7.68,50.53,17.16"/><path class="cls-23" d="M338.54,143.63c0,7.51-17.92,13.59-40,13.59s-40-6.08-40-13.59,17.92-13.59,40-13.59,40,6.08,40,13.59"/></g><polygon class="cls-24" points="324.16 147.96 269.64 147.8 270.86 132.78 325.69 132.78 324.16 147.96"/><polygon class="cls-25" points="325.69 132.78 270.86 132.78 272.39 117.6 327.23 117.6 325.69 132.78"/><polygon class="cls-26" points="272.39 117.6 304.21 102.41 327.23 117.6 272.39 117.6"/><g class="cls-21"><path class="cls-27" d="M290.37,112.81a3,3,0,0,0,2.15-1.35,2.57,2.57,0,0,0,.19-2.72,6.78,6.78,0,0,0-1.49-1.34,5.14,5.14,0,0,1-1.78-3.21,2.46,2.46,0,0,0-1.94,2.9,2.23,2.23,0,0,0,.3.79,1.78,1.78,0,0,1-.32-.57,1.3,1.3,0,0,0-1.2-.58,3.1,3.1,0,0,0-1.32.45,2.59,2.59,0,0,0-.89.65,2,2,0,0,0-.33,1.68,5,5,0,0,0,.73,1.6,1.76,1.76,0,0,0-2-.09,2,2,0,0,0-.7,1.43,3.49,3.49,0,0,0,1.4,3.06,6.62,6.62,0,0,0,3.3.92c.84.07,1.68.12,2.53.15a7.57,7.57,0,0,0,1.84-.08,4.35,4.35,0,0,0,3.37-3.57,1.73,1.73,0,0,0-.28-1.36,2.13,2.13,0,0,0-.68-.47A.36.36,0,0,0,293,111a.28.28,0,0,0-.15.08,4.6,4.6,0,0,0-1,1.11"/><path class="cls-28" d="M290.37,112.81a3,3,0,0,0,2.15-1.35,2.57,2.57,0,0,0,.19-2.72,6.78,6.78,0,0,0-1.49-1.34,5.14,5.14,0,0,1-1.78-3.21,2.46,2.46,0,0,0-1.94,2.9,2.23,2.23,0,0,0,.3.79,1.78,1.78,0,0,1-.32-.57,1.3,1.3,0,0,0-1.2-.58,3.1,3.1,0,0,0-1.32.45,2.59,2.59,0,0,0-.89.65,2,2,0,0,0-.33,1.68,5,5,0,0,0,.73,1.6,1.76,1.76,0,0,0-2-.09,2,2,0,0,0-.7,1.43,3.49,3.49,0,0,0,1.4,3.06,6.62,6.62,0,0,0,3.3.92c.84.07,1.68.12,2.53.15a7.57,7.57,0,0,0,1.84-.08,4.35,4.35,0,0,0,3.37-3.57,1.73,1.73,0,0,0-.28-1.36,2.13,2.13,0,0,0-.68-.47A.36.36,0,0,0,293,111a.28.28,0,0,0-.15.08,4.6,4.6,0,0,0-1,1.11"/><path class="cls-27" d="M308.22,107.8a2.92,2.92,0,0,0,2.15-1.35,2.55,2.55,0,0,0,.18-2.72,6.25,6.25,0,0,0-1.48-1.33,5.09,5.09,0,0,1-1.78-3.22,2.47,2.47,0,0,0-2,2.9,2.61,2.61,0,0,0,.31.8,1.83,1.83,0,0,1-.32-.58,1.32,1.32,0,0,0-1.21-.58,3.41,3.41,0,0,0-1.31.45,2.59,2.59,0,0,0-.89.65,2,2,0,0,0-.33,1.68,4.79,4.79,0,0,0,.73,1.61,1.75,1.75,0,0,0-2-.1,2,2,0,0,0-.7,1.43,3.49,3.49,0,0,0,1.4,3.06,6.62,6.62,0,0,0,3.3.92c.84.07,1.68.12,2.53.15a7.57,7.57,0,0,0,1.84-.08,4.34,4.34,0,0,0,3.37-3.56,1.75,1.75,0,0,0-.28-1.37,2.13,2.13,0,0,0-.68-.47.54.54,0,0,0-.25-.06.42.42,0,0,0-.16.09,4.56,4.56,0,0,0-1,1.1"/><path class="cls-28" d="M308.22,107.8a2.92,2.92,0,0,0,2.15-1.35,2.55,2.55,0,0,0,.18-2.72,6.25,6.25,0,0,0-1.48-1.33,5.09,5.09,0,0,1-1.78-3.22,2.47,2.47,0,0,0-2,2.9,2.61,2.61,0,0,0,.31.8,1.83,1.83,0,0,1-.32-.58,1.32,1.32,0,0,0-1.21-.58,3.41,3.41,0,0,0-1.31.45,2.59,2.59,0,0,0-.89.65,2,2,0,0,0-.33,1.68,4.79,4.79,0,0,0,.73,1.61,1.75,1.75,0,0,0-2-.1,2,2,0,0,0-.7,1.43,3.49,3.49,0,0,0,1.4,3.06,6.62,6.62,0,0,0,3.3.92c.84.07,1.68.12,2.53.15a7.57,7.57,0,0,0,1.84-.08,4.34,4.34,0,0,0,3.37-3.56,1.75,1.75,0,0,0-.28-1.37,2.13,2.13,0,0,0-.68-.47.54.54,0,0,0-.25-.06.42.42,0,0,0-.16.09,4.56,4.56,0,0,0-1,1.1"/><path class="cls-27" d="M315.81,113.13a3,3,0,0,0,2.15-1.34,2.59,2.59,0,0,0,.19-2.73,6.74,6.74,0,0,0-1.44-1.33,5.14,5.14,0,0,1-1.78-3.21,2.47,2.47,0,0,0-2,2.82,2.51,2.51,0,0,0,.35.92c-.17-.15-.21-.39-.32-.58a1.3,1.3,0,0,0-1.2-.58,3.24,3.24,0,0,0-1.32.45,2.59,2.59,0,0,0-.89.65,2,2,0,0,0-.33,1.68,5,5,0,0,0,.73,1.61,1.75,1.75,0,0,0-2-.1,2,2,0,0,0-.69,1.43,3.45,3.45,0,0,0,1.39,3.06,6.42,6.42,0,0,0,3.3.92c.84.07,1.68.12,2.53.15a7.57,7.57,0,0,0,1.84-.08,4.35,4.35,0,0,0,3.43-3.61,1.75,1.75,0,0,0-.28-1.37,1.86,1.86,0,0,0-.68-.46.43.43,0,0,0-.25-.07.29.29,0,0,0-.15.09,4.56,4.56,0,0,0-1,1.1"/><path class="cls-28" d="M315.81,113.13a3,3,0,0,0,2.15-1.34,2.59,2.59,0,0,0,.19-2.73,6.74,6.74,0,0,0-1.44-1.33,5.14,5.14,0,0,1-1.78-3.21,2.47,2.47,0,0,0-2,2.82,2.51,2.51,0,0,0,.35.92c-.17-.15-.21-.39-.32-.58a1.3,1.3,0,0,0-1.2-.58,3.24,3.24,0,0,0-1.32.45,2.59,2.59,0,0,0-.89.65,2,2,0,0,0-.33,1.68,5,5,0,0,0,.73,1.61,1.75,1.75,0,0,0-2-.1,2,2,0,0,0-.69,1.43,3.45,3.45,0,0,0,1.39,3.06,6.42,6.42,0,0,0,3.3.92c.84.07,1.68.12,2.53.15a7.57,7.57,0,0,0,1.84-.08,4.35,4.35,0,0,0,3.43-3.61,1.75,1.75,0,0,0-.28-1.37,1.86,1.86,0,0,0-.68-.46.43.43,0,0,0-.25-.07.29.29,0,0,0-.15.09,4.56,4.56,0,0,0-1,1.1"/></g><polygon points="299.23 102.88 298.5 102.88 298.5 99.76 299.23 99.45 299.23 102.88"/><g class="cls-21"><path class="cls-29" d="M298.8,100a3.49,3.49,0,0,1-1.32-2.21,2.66,2.66,0,0,1,.86-2.37,4.29,4.29,0,0,1,.94-.57l1-.51a1.22,1.22,0,0,0-.26.92,5,5,0,0,0,.23,1,8.54,8.54,0,0,1,.32,1.66,1.8,1.8,0,0,1-.1,1,1.68,1.68,0,0,1-.4.48,5,5,0,0,1-1.27.8"/><path class="cls-30" d="M300.82,114.12h-3.59a.29.29,0,0,1-.29-.27h0V102.75a.29.29,0,0,1,.28-.28h3.6a.29.29,0,0,1,.29.27h0v11.09a.29.29,0,0,1-.28.28h0"/></g></g><path class="cls-9" d="M240.23,30.94V19.08c0-9.67,5.4-17.58,12-17.58h84.69c6.6,0,12,7.91,12,17.58V30.94"/><path class="cls-9" d="M349.09,200.87V214.3c0,11-5.37,19.91-12,19.92l-84.69.13c-6.6,0-12-8.94-12-19.89V201"/><rect class="cls-9" x="240.23" y="30.94" width="4.7" height="169.94"/><rect class="cls-9" x="344.41" y="30.94" width="4.7" height="169.94"/><circle class="cls-10" cx="293.72" cy="12.48" r="2.68"/><circle class="cls-10" cx="279.24" cy="21.28" r="1.35"/><rect class="cls-10" x="284.01" y="19.92" width="20.71" height="2.71" rx="1.35"/><circle class="cls-11" cx="294.36" cy="217.61" r="8.81"/><rect class="cls-2" x="360.18" y="28.06" width="108.68" height="172.26"/><path class="cls-12" d="M365.71,132.4l-.06.36v-.37Z"/><path class="cls-13" d="M461.78,114.92c-.26-1.08-.63-2.29-1.63-2.77-.73-1.24-1.3-2.48-2.1-3.68a55.14,55.14,0,0,0-5.38-7,42.32,42.32,0,0,0-7.28-6.21c-20.33-.27-41.11-.07-61.44.48q-3.51,4.44-7,8.91a48.91,48.91,0,0,0-6.24,9.36c-2,4.44-2.73,9.36-3.4,14.2-1.69,12.33-3.39,24.87-1.5,37.17a26.06,26.06,0,0,0,10.9-1.41c-.16,4.07,1.29,8.13,2.62,12a205.19,205.19,0,0,1,7.31,26.79c19.32-.51,38.67-.8,58-1.31a29.37,29.37,0,0,1,2.47-6.52,85.27,85.27,0,0,0,7.47-29.76c4.07.14,7.85.21,11.92.35A174.79,174.79,0,0,0,461.78,114.92Z"/><circle class="cls-31" cx="416.85" cy="159.7" r="0.98"/><path class="cls-31" d="M451,135.18c.67,3.41,2.87,6.33,3.87,9.66a28.37,28.37,0,0,1,.87,7.67,91.75,91.75,0,0,1-.36,13.67"/><path class="cls-31" d="M376.78,136.26c.38,4.51-.7,9-1.4,13.46s-1,9.23.88,13.35"/><path class="cls-31" d="M415.58,179a107.57,107.57,0,0,1-1.08,23.1"/><path class="cls-14" d="M414,28c-24.29,0-44,17.29-44,38.61,0,11.27,5.51,21.42,14.29,28.48a4.3,4.3,0,0,0,.19-1.71,4.3,4.3,0,0,1-.19,1.71A47.34,47.34,0,0,0,414,105.26c24.28,0,44-17.28,44-38.6S438.28,28,414,28Z"/><ellipse class="cls-8" cx="404.14" cy="67.35" rx="10.88" ry="8.29" transform="translate(170.66 404.03) rotate(-64.72)"/><ellipse class="cls-8" cx="422.58" cy="67.35" rx="8.29" ry="10.88" transform="translate(-5.23 57.82) rotate(-7.78)"/><circle class="cls-32" cx="408.42" cy="67.05" r="1.05"/><circle class="cls-32" cx="418.89" cy="65.99" r="1.05"/><polygon class="cls-16" points="428.99 85.5 423.71 93.49 415.87 88.51 428.99 85.5"/><path class="cls-33" d="M459,59.4c-9.53-.87-18.48-5-26.7-9.85s-15.74-11.09-24.11-15.72a47.71,47.71,0,0,1-13.33,14,93.11,93.11,0,0,1-10.22,5.86c-4.83,2.47-9.88,5-15.29,5.42-1.28-8.17,2.41-16.58,8.18-22.53s13.23-9.86,20.75-13.32a35.08,35.08,0,0,1,10.17-3.42,30.49,30.49,0,0,1,11,1.06c14.25,3.5,27.63,11.18,37,22.51-.18,2.53,1.27,4.81,2,7.23a34.89,34.89,0,0,1,1.15,6.49A3.72,3.72,0,0,1,459,59.4Z"/><line class="cls-17" x1="405.97" y1="52.97" x2="395.33" y2="57.71"/><line class="cls-17" x1="422.43" y1="53.21" x2="431.3" y2="57.71"/><ellipse class="cls-34" cx="397.06" cy="126.91" rx="1.73" ry="1.02"/><ellipse class="cls-34" cx="430.94" cy="126.91" rx="1.73" ry="1.02"/><path class="cls-35" d="M422.09,170c-.17.54-.22,1.11-.4,1.64a2,2,0,0,1-1,1.28,1.31,1.31,0,0,1-1.36-.28,1.36,1.36,0,0,1-.42-1.37,16.67,16.67,0,0,1-.8,6.61,1.89,1.89,0,0,1-1.2,1.26A1.51,1.51,0,0,1,416,179a3.2,3.2,0,0,1-1.47-1.78,9.56,9.56,0,0,1-.46-2.31l-.38-3.88a3.59,3.59,0,0,1-.5,2,1.24,1.24,0,0,1-1.71.38l-.07,0c-.53-.54-.18-1.48-.46-2.18"/><path class="cls-9" d="M359.56,31.26V19.42c0-9.67,5.4-17.59,12-17.59h84.68c6.6,0,12,7.92,12,17.59V31.26"/><path class="cls-9" d="M468.41,201.26v13.42c0,10.95-5.37,19.92-12,19.93l-84.68.13c-6.6,0-12-8.94-12-19.89V201.42"/><rect class="cls-9" x="359.56" y="31.27" width="4.7" height="169.94"/><rect class="cls-9" x="463.74" y="31.27" width="4.7" height="169.94"/><circle class="cls-10" cx="413.05" cy="12.82" r="2.68"/><circle class="cls-10" cx="398.57" cy="21.61" r="1.35"/><rect class="cls-10" x="403.33" y="20.26" width="20.71" height="2.71" rx="1.35"/><circle class="cls-11" cx="413.69" cy="217.95" r="8.81"/><rect class="cls-2" x="478.94" y="28.78" width="108.68" height="172.26"/><path class="cls-12" d="M485.9,139.73v0Z"/><path class="cls-12" d="M574.63,118.36h-.31a6.32,6.32,0,0,0-.66-1.16,13.61,13.61,0,0,0,.38-3.87c0-6.06-.29-8.42-.3-14.48.65-.11-.4-3.35.25-3.46,2-9.17.25-17.28.32-26.67,0-4-1.27-9.77-2.27-13.64-3.74-14.35-11.69-19.48-24.22-22.82-7.88-2.08-16-4.18-24.08-3.3-14.81,1.6-27.1,13.18-33.4,26.68-2.8,6-5.51,17.38-4.72,24,.45,3.7-.44,4.45,0,8.15.84,7,4.47,13.33,3.07,20.25-.8,4-2.33,7.75-3.39,11.67a52,52,0,0,0-1.71,18.45,8.74,8.74,0,0,0,2.28,1h0c2.86.85,6,.51,9.1,1.19,11.9,2.64,24.32-1.79,36.23-4.37a201.93,201.93,0,0,0,20.09-5.3c7.7-2.52,15.17-5.69,22.62-8.86v.07h0v-.1l.14-.06h-.14v-.24c.75-.44,1-1.29.38-3A1.4,1.4,0,0,1,574.63,118.36Zm-1.63-.44h.07v.45h-.3Zm-4.29-26.87a30,30,0,0,1-3.8,6.8c-.35.51-.67,1-1,1.53-5.31.8-10.64,1.39-16,2l-14,1.57c-10,1.11-20.67-1.62-30.36.72l-.16-.16c0,1,0,1.48-.52,2,.5-.51.52-1,.52-2-1.34-1.28-2.72-2.76-4-3.91a14,14,0,0,1-2.61-2.77,13.48,13.48,0,0,1-1.57-4.06c-.84-3.13-1.64-6.27-2.38-9.42a25.83,25.83,0,0,1-.95-6.48c.06-3.12,1.21-6.11,2.33-9A2.48,2.48,0,0,1,497,66.45c2,.45,4.55-1.52,6.17-2.92,1.07-.93,1.93-2.08,3-3.06a35.15,35.15,0,0,1,5.24-3.58,36.51,36.51,0,0,0,11.46-11.74,160.62,160.62,0,0,0,46.16,27.6c.15,2.1.31,3.86.46,6C569.83,82.85,570.12,87.13,568.71,91.05Zm3,31.13V122a5.93,5.93,0,0,0,2-.35,1.09,1.09,0,0,0,.08.15C573.19,121.93,572.47,122.06,571.71,122.18Z"/><path class="cls-13" d="M575.37,123.46a3.61,3.61,0,0,0-1.53-2.59c-.67-1.15-1.21-2.31-1.94-3.42a50.79,50.79,0,0,0-5-6.5,39.25,39.25,0,0,0-6.77-5.84c-18.94-.26-38.28-.08-57.2.43q-3.29,4.14-6.52,8.3a46,46,0,0,0-5.79,8.76c-1.9,4.14-2.54,8.72-3.16,13.22-1.58,11.48-3.16,23.16-1.4,34.61a24.17,24.17,0,0,0,10.12-1.31c-.14,3.79,1.2,7.57,2.44,11.15a193,193,0,0,1,6.79,25c18-.47,36-.74,54-1.22a27.32,27.32,0,0,1,2.3-6.11,79.48,79.48,0,0,0,7-27.72c3.79.14,7.31.2,11.1.33A163.22,163.22,0,0,0,575.37,123.46Z"/><path class="cls-36" d="M501.71,125.26c19.39,2.25,39.24,4.48,58.25,0a25.07,25.07,0,0,1,5.53,17.13,97,97,0,0,1-59.78,2.72,72.32,72.32,0,0,0-9.37-2.4c-.41-4.65,1.84-9,4.37-12.94A9,9,0,0,0,501.71,125.26Z"/><path class="cls-36" d="M495.71,167.41a42.85,42.85,0,0,0,7.19,3.21,41.28,41.28,0,0,0,9.63,1.36,387.37,387.37,0,0,0,57-1,16.33,16.33,0,0,1-1.1,7.76c-4.58,1.73-9.63,3.47-14.33,4.91-6.75,2.07-13.69,3.85-20.78,4a79.24,79.24,0,0,1-37.27-11.87C495.71,173,496.16,170.15,495.71,167.41Z"/><path class="cls-17" d="M507.08,135.18c0,2.88,5.76,5.16,12.83,5.1"/><path class="cls-17" d="M554.71,135.18c0,2.88-5.76,5.16-12.82,5.1"/><circle class="cls-31" cx="533.53" cy="165.15" r="0.91"/><path class="cls-31" d="M565.32,142.31c.62,3.18,2.67,5.9,3.6,9a26.13,26.13,0,0,1,.81,7.15,87.16,87.16,0,0,1-.33,12.72"/><path class="cls-31" d="M496.23,143.26c.35,4.2-.66,8.38-1.31,12.54s-.92,8.59.82,12.42"/><path class="cls-31" d="M532.55,185.41a69.34,69.34,0,0,1-1.16,19.18"/><path class="cls-14" d="M530.88,42.54c-22.61,0-40.94,16.09-40.94,35.94,0,10.5,5.13,20,13.31,26.52a4.26,4.26,0,0,0,.18-1.59,4.26,4.26,0,0,1-.18,1.59,44.06,44.06,0,0,0,27.63,9.42c22.61,0,40.93-16.09,40.93-35.94S553.49,42.54,530.88,42.54Z"/><ellipse class="cls-8" cx="521.7" cy="79.16" rx="10.13" ry="7.72" transform="translate(227.33 517.09) rotate(-64.72)"/><ellipse class="cls-8" cx="538.87" cy="79.16" rx="7.72" ry="10.13" transform="translate(-5.76 73.67) rotate(-7.78)"/><circle class="cls-37" cx="525.68" cy="78.88" r="0.98"/><circle class="cls-37" cx="535.43" cy="77.9" r="0.98"/><polygon class="cls-16" points="544.84 96.06 539.92 103.5 532.62 98.87 544.84 96.06"/><path class="cls-12" d="M572.71,71.76c-8.87-.81-17.2-4.62-24.86-9.17S533.22,52.26,525.42,48A44.2,44.2,0,0,1,513,61a87,87,0,0,1-9.51,5.46c-4.5,2.34-9.17,4.74-14.24,5.09-1.19-7.61,2.27-15.44,7.62-21s12.33-9.18,19.31-12.41a32.69,32.69,0,0,1,9.52-3.19,28.33,28.33,0,0,1,10.28,1c13.22,3.25,25.72,10.35,34.36,20.94-.17,2.36,1.18,4.48,1.89,6.74a31.32,31.32,0,0,1,1.07,6A3.49,3.49,0,0,1,572.71,71.76Z"/><line class="cls-17" x1="523.4" y1="65.78" x2="513.49" y2="70.18"/><line class="cls-17" x1="538.73" y1="66" x2="546.98" y2="70.18"/><path class="cls-9" d="M478.77,30.94V19.08c0-9.67,5.4-17.58,12-17.58h84.69c6.6,0,12,7.91,12,17.58V30.94"/><path class="cls-9" d="M587.63,200.87V214.3c0,11-5.37,19.91-12,19.92l-84.69.13c-6.6,0-12-8.94-12-19.89V201"/><rect class="cls-9" x="478.77" y="30.94" width="4.7" height="169.94"/><rect class="cls-9" x="582.95" y="30.94" width="4.7" height="169.94"/><circle class="cls-10" cx="532.26" cy="12.48" r="2.68"/><circle class="cls-10" cx="517.78" cy="21.28" r="1.35"/><rect class="cls-10" x="522.55" y="19.92" width="20.71" height="2.71" rx="1.35"/><circle class="cls-11" cx="532.9" cy="217.61" r="8.81"/><rect class="cls-2" x="597.37" y="29.81" width="108.68" height="172.26"/><path class="cls-12" d="M603.51,141.13a.85.85,0,0,1,0,.35v-.36Z"/><path class="cls-38" d="M695.48,114.79h-.33a6.38,6.38,0,0,0-.74-1.19,14.25,14.25,0,0,0,.22-4.07c-.27-6.34-.68-8.81-1-15.15.69-.14-.56-3.49.12-3.64,1.69-9.69-.52-18.1-.86-27.94-.15-4.2-1.76-10.17-3-14.19-4.5-14.84-13.06-19.85-26.33-22.76-8.35-1.83-16.92-3.67-25.37-2.39-15.48,2.34-27.79,15-33.78,29.43-2.7,6.37-5,18.45-3.88,25.29.63,3.86-.27,4.69.36,8.54,1.2,7.3,5.28,13.77,4.12,21.08-.66,4.19-2.09,8.22-3,12.36a54.64,54.64,0,0,0-1,19.41,9.37,9.37,0,0,0,2.43,1h0c3,.77,6.35.27,9.58.84,12.58,2.24,25.39-2.95,37.75-6.19a207.43,207.43,0,0,0,20.8-6.44c8-3,15.64-6.64,23.3-10.3l.06.08h0v-.09l.15-.07h-.15v-.25c.77-.49,1-1.4.27-3.12A1.61,1.61,0,0,1,695.48,114.79Zm-1.77-.38h.07a1.1,1.1,0,0,0,.07.46h-.31Zm-5.66-28a31.2,31.2,0,0,1-3.68,7.29c-.34.55-.65,1.11-.94,1.65-5.53,1.07-11.09,1.93-16.65,2.79l-14.63,2.27c-10.46,1.62-21.73-.77-31.77,2.12l-.18-.16a2.94,2.94,0,0,1-.45,2.1c.5-.55.5-1.08.45-2.1-1.45-1.29-3-2.77-4.38-3.92A15.37,15.37,0,0,1,613,95.67a14.6,14.6,0,0,1-1.82-4.19c-1-3.23-2-6.49-2.92-9.75A27.3,27.3,0,0,1,606.94,75c-.07-3.27,1-6.45,2-9.55a2.59,2.59,0,0,1,2.91-1.61c2.12.38,4.69-1.8,6.32-3.33,1.08-1,1.93-2.28,3-3.34a34.58,34.58,0,0,1,5.32-4A38,38,0,0,0,638,40.38a168.78,168.78,0,0,0,49.63,26.88c.25,2.18.49,4,.75,6.2.5,4.35,1,8.8-.28,13Zm4.53,32.47v-.2a6,6,0,0,0,2.13-.46l.09.16Z"/><path class="cls-39" d="M696.48,120.09a3.8,3.8,0,0,0-1.71-2.63c-.77-1.18-1.37-2.37-2.2-3.5a52.81,52.81,0,0,0-5.54-6.59,41,41,0,0,0-7.32-5.81c-19.84.58-40.09,1.63-59.89,3q-3.24,4.47-6.45,9a47.87,47.87,0,0,0-5.66,9.42c-1.8,4.42-2.27,9.24-2.72,14-1.19,12.08-2.28,24.38,0,36.28a25.34,25.34,0,0,0,10.54-1.83c0,4,1.59,7.88,3.06,11.58a201.14,201.14,0,0,1,8.23,25.81c18.82-1.3,37.68-2.38,56.49-3.69a28.74,28.74,0,0,1,2.14-6.45,83.21,83.21,0,0,0,6-29.34c4,0,7.66-.12,11.64-.14A171.3,171.3,0,0,0,696.48,120.09Z"/><path class="cls-36" d="M615,169.68a44.2,44.2,0,0,0,7.67,3,43.28,43.28,0,0,0,10.15,1,407,407,0,0,0,59.62-3.52,17.06,17.06,0,0,1-.8,8.17c-4.73,2-9.94,4.06-14.79,5.77-7,2.48-14.17,4.65-21.59,5.09a83.28,83.28,0,0,1-39.52-10.76C615.26,175.54,615.61,172.53,615,169.68Z"/><path class="cls-31" d="M679.36,131.54C681,138,667.28,146,659,139.85"/><circle class="cls-31" cx="654.52" cy="165.62" r="0.96"/><path class="cls-31" d="M686.8,140.26c.79,3.3,3,6.05,4.17,9.26a28,28,0,0,1,1.16,7.44,91.53,91.53,0,0,1,.22,13.35"/><path class="cls-31" d="M614.48,144.38c.56,4.38-.32,8.8-.81,13.18s-.58,9,1.41,13"/><path class="cls-31" d="M654.4,186.89A72.66,72.66,0,0,1,654,207"/><path class="cls-40" d="M646.27,37.34C622.59,38.34,604.12,56,605,76.8c.47,11,6.27,20.66,15.12,27.18a4.27,4.27,0,0,0,.12-1.67,4.27,4.27,0,0,1-.12,1.67,46.27,46.27,0,0,0,29.36,8.64c23.68-1,42.15-18.68,41.27-39.47S670,36.33,646.27,37.34Z"/><ellipse class="cls-8" cx="638.3" cy="76.09" rx="10.61" ry="8.09" transform="translate(320.41 634.81) rotate(-67.16)"/><ellipse class="cls-8" cx="656.26" cy="75.35" rx="8.09" ry="10.61" transform="translate(-2.96 117.52) rotate(-10.21)"/><circle class="cls-32" cx="642.45" cy="75.63" r="1.03"/><circle class="cls-32" cx="652.62" cy="74.16" r="1.03"/><polygon class="cls-16" points="663.28 92.76 658.47 100.78 650.61 96.25 663.28 92.76"/><path class="cls-38" d="M691.41,66.07c-9.33-.45-18.22-4.07-26.45-8.49s-15.8-10.16-24.16-14.32A46.39,46.39,0,0,1,628.38,57.4a94.59,94.59,0,0,1-9.67,6.15c-4.62,2.65-9.4,5.37-14.69,6-1.63-7.95,1.69-16.29,7-22.29S623.52,37,630.71,33.34a34.12,34.12,0,0,1,9.78-3.76,29.8,29.8,0,0,1,10.81.57c14,2.83,27.39,9.76,37,20.41-.07,2.49,1.43,4.64,2.28,7A32,32,0,0,1,692,63.84,3.65,3.65,0,0,1,691.41,66.07Z"/><line class="cls-17" x1="639.48" y1="62.01" x2="629.3" y2="67.06"/><line class="cls-17" x1="655.54" y1="61.55" x2="664.37" y2="65.57"/><ellipse class="cls-34" cx="633.86" cy="134.47" rx="1.69" ry="1" transform="translate(-5.15 27.11) rotate(-2.44)"/><ellipse class="cls-34" cx="666.9" cy="133.05" rx="1.69" ry="1" transform="translate(-5.06 28.51) rotate(-2.44)"/><path class="cls-31" d="M622.59,134c-1.12,6.58,13.25,13.34,21,6.56"/><path class="cls-9" d="M598.18,31.26V19.42c0-9.67,5.4-17.59,12-17.59h84.68c6.6,0,12,7.92,12,17.59V31.26"/><path class="cls-9" d="M707,201.26v13.42c0,10.95-5.37,19.92-12,19.93l-84.68.13c-6.6,0-12-8.94-12-19.89V201.42"/><rect class="cls-9" x="598.18" y="31.27" width="4.7" height="169.94"/><rect class="cls-9" x="702.35" y="31.27" width="4.7" height="169.94"/><circle class="cls-10" cx="651.67" cy="12.82" r="2.68"/><circle class="cls-10" cx="637.19" cy="21.61" r="1.35"/><rect class="cls-10" x="641.95" y="20.26" width="20.71" height="2.71" rx="1.35"/><circle class="cls-11" cx="652.31" cy="217.95" r="8.81"/></g></g></svg>
