<svg xmlns="http://www.w3.org/2000/svg" width="384.5" height="384.5" viewBox="0 0 384.5 384.5"><defs><style>.cls-1{fill:#a95417;stroke:#c7c711;stroke-miterlimit:10;stroke-width:0.75px;}.cls-2{fill:#c7c711;}</style></defs><title>tema3</title><g id="Layer_2" data-name="Layer 2"><g id="Layer_1-2" data-name="Layer 1"><circle class="cls-1" cx="192.25" cy="192.25" r="191.88"/><path class="cls-2" d="M155,132.73l-3.74,3.32-.57-.64,4.46-3.95,4.22,4.76a8,8,0,0,1-1,3,9.81,9.81,0,0,1-2.12,2.62,7.1,7.1,0,0,1-5.79,2,9.8,9.8,0,0,1-5.85-3.59,12,12,0,0,1-2.5-4.14,6.9,6.9,0,0,1-.16-4,7.2,7.2,0,0,1,2.27-3.48,6.18,6.18,0,0,1,3.67-1.68,6,6,0,0,1,3.83,1.16l-.52.75a4.84,4.84,0,0,0-6.43.43,5.68,5.68,0,0,0-2.12,4.72,9.26,9.26,0,0,0,2.68,5.58,9,9,0,0,0,5.27,3.31,6.15,6.15,0,0,0,5.12-1.74,9.2,9.2,0,0,0,1.79-2.17,6.88,6.88,0,0,0,.9-2.42Z" transform="translate(-75.95 -77.37)"/><path class="cls-2" d="M163.52,135.32l-7.4-9.73.72-.55,1.28,1.69a4.67,4.67,0,0,1,1.81-4.28,6.28,6.28,0,0,1,.76-.49l.44.77a5.18,5.18,0,0,0-.69.44,3.91,3.91,0,0,0-1.15,1.33,4.2,4.2,0,0,0-.47,1.76,3,3,0,0,0,.13,1.25,4.85,4.85,0,0,0,.75,1.29l4.54,6Z" transform="translate(-75.95 -77.37)"/><path class="cls-2" d="M177.31,125.57l-1.16-1.75a5.43,5.43,0,0,1-2.48,4.63,3.7,3.7,0,0,1-3.07.67,4.82,4.82,0,0,1-2.67-2.21l-4.51-6.79.76-.5,4.39,6.61a4.48,4.48,0,0,0,2.25,2,2.94,2.94,0,0,0,2.51-.55,4.72,4.72,0,0,0,2-3,3.53,3.53,0,0,0,0-1.54,5.11,5.11,0,0,0-.77-1.61l-4.1-6.18.75-.5,6.77,10.19Z" transform="translate(-75.95 -77.37)"/><path class="cls-2" d="M189.07,118.77l-3.85-6.93a4.46,4.46,0,0,0-2.11-2.15,3.07,3.07,0,0,0-2.63.39,5,5,0,0,0-2.35,2.83,3.22,3.22,0,0,0-.21,1.56,5,5,0,0,0,.63,1.67l3.61,6.48-.8.44-5.94-10.69.8-.44,1,1.83a5.68,5.68,0,0,1,3-4.48,3.89,3.89,0,0,1,3.18-.48,4.76,4.76,0,0,1,2.52,2.41l4,7.12Z" transform="translate(-75.95 -77.37)"/><path class="cls-2" d="M201.75,112.77l-1-2.17a4.9,4.9,0,0,1-3,4.4,4.73,4.73,0,0,1-4.23,0,7.37,7.37,0,0,1-3.24-3.75,7.22,7.22,0,0,1-.65-5,4.93,4.93,0,0,1,2.91-3.22,5.08,5.08,0,0,1,2.7-.49,4.3,4.3,0,0,1,2.37,1l-2.9-6.38.83-.37,7,15.5Zm-2.71-6.1a7.06,7.06,0,0,0-1.36-2.09,4.18,4.18,0,0,0-1.74-1.06,4.35,4.35,0,0,0-3,.29,4,4,0,0,0-2.44,2.73,6.63,6.63,0,0,0,.66,4.33,6.74,6.74,0,0,0,2.77,3.34,3.84,3.84,0,0,0,3.57,0,4.35,4.35,0,0,0,2.23-2.11,4.5,4.5,0,0,0,.39-2.07,6,6,0,0,0-.57-2.27Z" transform="translate(-75.95 -77.37)"/><path class="cls-2" d="M206.26,111l-6.14-15.87.84-.33,6.14,15.88Z" transform="translate(-75.95 -77.37)"/><path class="cls-2" d="M227.18,101a4,4,0,0,1-.78,2.87,5.1,5.1,0,0,1-2.71,1.75,5.27,5.27,0,0,1-3.21.06,4.93,4.93,0,0,1-2.48-1.94,3.45,3.45,0,0,1-.39,1.84,5.32,5.32,0,0,1-1.41,1.7,6.15,6.15,0,0,1-2.15,1.13,4.3,4.3,0,0,1-3.18-.09,3.58,3.58,0,0,1-1.82-2.32,3.28,3.28,0,0,1,.53-3.22,9.11,9.11,0,0,1,4.1-2.34l2.48-.85-.14-.48a4.17,4.17,0,0,0-1.6-2.54,3.64,3.64,0,0,0-2.88,0,4.87,4.87,0,0,0-2.25,1.24,2.63,2.63,0,0,0-.63,2l-.82.09q-.26-3,3.52-4.13a4.7,4.7,0,0,1,3-.1,3.49,3.49,0,0,1,1.88,1.93,4.91,4.91,0,0,1,1.1-2.79,5.16,5.16,0,0,1,2.56-1.61,4.45,4.45,0,0,1,4,.47,7.08,7.08,0,0,1,2.52,4l.18.59-9.11,2.73a6.07,6.07,0,0,0,2.31,3.53,4.23,4.23,0,0,0,3.68.37,4.12,4.12,0,0,0,2.18-1.36,3.32,3.32,0,0,0,.68-2.23Zm-10.81-.7-2.39.82a8.45,8.45,0,0,0-3.58,2,2.65,2.65,0,0,0-.46,2.66,2.82,2.82,0,0,0,1.42,1.85,3.54,3.54,0,0,0,2.52,0,5.53,5.53,0,0,0,1.71-.82,4.37,4.37,0,0,0,1.19-1.24,3.45,3.45,0,0,0,.29-2.92Zm9.16-2.59a6,6,0,0,0-2.11-3.36,3.72,3.72,0,0,0-3.31-.37,4,4,0,0,0-2.67,2.18,6.17,6.17,0,0,0-.16,4Z" transform="translate(-75.95 -77.37)"/><path class="cls-2" d="M240.15,98.71a4.92,4.92,0,0,1-4,3.49,4.73,4.73,0,0,1-4.08-.91,6.83,6.83,0,0,1-2.21-4.21,6.7,6.7,0,0,1,.58-4.74A5,5,0,0,1,234,90a5.28,5.28,0,0,1,2.76.15,4.29,4.29,0,0,1,2,1.51l-.39-2.1.88-.17,2.22,11.76a5.22,5.22,0,0,1-.55,4,5.38,5.38,0,0,1-3.6,2,6.21,6.21,0,0,1-3.66-.21,3.41,3.41,0,0,1-1.92-2.21l.85-.16a2.76,2.76,0,0,0,1.61,1.69,5.62,5.62,0,0,0,3,.09,4.49,4.49,0,0,0,3-1.6,4.66,4.66,0,0,0,.36-3.48Zm-.7-4a6.46,6.46,0,0,0-.79-2.23,3.74,3.74,0,0,0-1.44-1.35,4.31,4.31,0,0,0-2.95-.39,4.17,4.17,0,0,0-3.06,2,7.4,7.4,0,0,0,1.45,7.85,4,4,0,0,0,3.46.78,4.49,4.49,0,0,0,2.66-1.47,4.09,4.09,0,0,0,.88-1.81,5.57,5.57,0,0,0,0-2.23Z" transform="translate(-75.95 -77.37)"/><path class="cls-2" d="M254.36,97a4.93,4.93,0,0,1-4.27,3.15,4.76,4.76,0,0,1-4-1.25,6.83,6.83,0,0,1-1.86-4.37,6.69,6.69,0,0,1,1-4.68A5,5,0,0,1,249,87.77a5.21,5.21,0,0,1,2.74.38,4.24,4.24,0,0,1,1.91,1.68l-.22-2.14.9-.09,1.24,11.9a5.27,5.27,0,0,1-.88,4,5.41,5.41,0,0,1-3.76,1.66,6.13,6.13,0,0,1-3.62-.51,3.41,3.41,0,0,1-1.74-2.36l.86-.09a2.76,2.76,0,0,0,1.47,1.81,5.49,5.49,0,0,0,3,.34A4.42,4.42,0,0,0,254,103a4.64,4.64,0,0,0,.65-3.44ZM254,93a6.36,6.36,0,0,0-.61-2.28,3.8,3.8,0,0,0-1.31-1.47,4.34,4.34,0,0,0-2.92-.63,4.16,4.16,0,0,0-3.21,1.74,7.42,7.42,0,0,0,.8,8,4,4,0,0,0,3.38,1.06,4.48,4.48,0,0,0,2.77-1.25,4.1,4.1,0,0,0,1-1.73,5.44,5.44,0,0,0,.19-2.23Z" transform="translate(-75.95 -77.37)"/><path class="cls-2" d="M269.16,96.25a3.94,3.94,0,0,1-1.53,2.57,5.27,5.27,0,0,1-3.15,1,5.08,5.08,0,0,1-4.13-1.57,7.09,7.09,0,0,1-1.55-4.71,7.33,7.33,0,0,1,1.34-4.87,5,5,0,0,1,4-1.83,4.58,4.58,0,0,1,3.77,1.5,6.91,6.91,0,0,1,1.43,4.48v.62l-9.65.23a6.06,6.06,0,0,0,1.31,4,5.06,5.06,0,0,0,6,.61,3.29,3.29,0,0,0,1.27-2Zm-.72-3.6a6,6,0,0,0-1.14-3.8,3.78,3.78,0,0,0-3.15-1.23A4.15,4.15,0,0,0,260.92,89a6.11,6.11,0,0,0-1.23,3.84Z" transform="translate(-75.95 -77.37)"/><path class="cls-2" d="M281.64,99.86l.44-7.93a4.37,4.37,0,0,0-.64-2.93A3.06,3.06,0,0,0,279,87.92a5,5,0,0,0-3.5,1.14,3.45,3.45,0,0,0-1,1.21,5,5,0,0,0-.35,1.75l-.41,7.4-.9,0,.67-12.21.91,0-.12,2.09a5.7,5.7,0,0,1,4.9-2.21,3.94,3.94,0,0,1,2.95,1.3,4.81,4.81,0,0,1,.85,3.38l-.45,8.14Z" transform="translate(-75.95 -77.37)"/><path class="cls-2" d="M295.57,101.52l.32-2.36a4.9,4.9,0,0,1-4.89,2.12,4.69,4.69,0,0,1-3.59-2.23,7.36,7.36,0,0,1-.75-4.9,7.25,7.25,0,0,1,2.09-4.53,4.9,4.9,0,0,1,4.18-1.18,5.18,5.18,0,0,1,2.54,1,4.28,4.28,0,0,1,1.45,2.15l.95-7,.9.13-2.31,16.86Zm.95-6.6a7.35,7.35,0,0,0,0-2.5,4.2,4.2,0,0,0-.92-1.82,4.33,4.33,0,0,0-2.7-1.35,4,4,0,0,0-3.52,1,6.65,6.65,0,0,0-1.74,4,6.77,6.77,0,0,0,.56,4.3,3.87,3.87,0,0,0,3,1.91,4.3,4.3,0,0,0,3-.6,4.51,4.51,0,0,0,1.43-1.54,6,6,0,0,0,.72-2.23Z" transform="translate(-75.95 -77.37)"/><path class="cls-2" d="M310.5,101.47a4,4,0,0,1-2.1,2.12,5.24,5.24,0,0,1-3.29.2,5.08,5.08,0,0,1-3.63-2.5,7.06,7.06,0,0,1-.39-5,7.32,7.32,0,0,1,2.46-4.41,5,5,0,0,1,4.33-.83,4.59,4.59,0,0,1,3.3,2.35,6.84,6.84,0,0,1,.32,4.7l-.13.6-9.43-2.07a6.06,6.06,0,0,0,.32,4.21,4.37,4.37,0,0,0,3.1,2.13,4.44,4.44,0,0,0,2.61-.11,3.28,3.28,0,0,0,1.7-1.63Zm.15-3.68a5.9,5.9,0,0,0-.2-4,3.76,3.76,0,0,0-2.77-1.94,4.16,4.16,0,0,0-3.46.58,6.07,6.07,0,0,0-2.11,3.44Z" transform="translate(-75.95 -77.37)"/><path class="cls-2" d="M319.38,107.21,324.53,91l.91.29-5.15,16.22Z" transform="translate(-75.95 -77.37)"/><path class="cls-2" d="M332.58,111.92l2.82-7.42a4.39,4.39,0,0,0,.28-3,3.05,3.05,0,0,0-2-1.77,5,5,0,0,0-3.68,0,3.4,3.4,0,0,0-1.33.85,4.83,4.83,0,0,0-.86,1.56l-2.64,6.92-.84-.32,4.34-11.43.85.33-.74,2a5.67,5.67,0,0,1,5.33-.63,3.91,3.91,0,0,1,2.42,2.13,4.82,4.82,0,0,1-.22,3.48l-2.89,7.62Z" transform="translate(-75.95 -77.37)"/><path class="cls-2" d="M345.32,117.73l1-2.15a4.92,4.92,0,0,1-5.3.54,4.73,4.73,0,0,1-2.74-3.23,8.66,8.66,0,0,1,4.14-8.57,4.92,4.92,0,0,1,4.34.14,5.15,5.15,0,0,1,2.12,1.75,4.32,4.32,0,0,1,.72,2.48l3-6.32.82.39-7.33,15.36Zm2.91-6a7,7,0,0,0,.73-2.39,4.18,4.18,0,0,0-.32-2,4.29,4.29,0,0,0-2.16-2.12,4,4,0,0,0-3.66-.1,6.65,6.65,0,0,0-2.88,3.3,6.76,6.76,0,0,0-.77,4.27,3.86,3.86,0,0,0,2.29,2.74,4.37,4.37,0,0,0,3.05.34,4.44,4.44,0,0,0,1.83-1,5.91,5.91,0,0,0,1.37-1.9Z" transform="translate(-75.95 -77.37)"/><path class="cls-2" d="M357.18,124.37l4-6.86a4.38,4.38,0,0,0,.76-2.9,3.07,3.07,0,0,0-1.68-2.07,5,5,0,0,0-3.64-.57,3.41,3.41,0,0,0-1.44.62,4.9,4.9,0,0,0-1.11,1.4l-3.72,6.41-.79-.46,8.56-14.71.78.45-3.46,6a5.65,5.65,0,0,1,5.36.25,3.9,3.9,0,0,1,2,2.5,4.76,4.76,0,0,1-.77,3.39l-4.1,7Z" transform="translate(-75.95 -77.37)"/><path class="cls-2" d="M365.14,130.1a5.18,5.18,0,0,1-2.39-3.78,7.05,7.05,0,0,1,1.48-4.76,8.06,8.06,0,0,1,2.52-2.41,5.2,5.2,0,0,1,2.9-.76,5.57,5.57,0,0,1,3,1.08,5.16,5.16,0,0,1,2.39,3.77,7,7,0,0,1-1.5,4.78,7.85,7.85,0,0,1-2.49,2.4,5.28,5.28,0,0,1-2.91.75A5.55,5.55,0,0,1,365.14,130.1Zm.49-.65a4.26,4.26,0,0,0,3.69.76,7.82,7.82,0,0,0,4.81-6.9,4.81,4.81,0,0,0-5.69-4,7.82,7.82,0,0,0-4.81,6.89A4.28,4.28,0,0,0,365.63,129.45Z" transform="translate(-75.95 -77.37)"/><path class="cls-2" d="M372.72,135.21l10.5-13.4.71.56-10.5,13.4Z" transform="translate(-75.95 -77.37)"/><path class="cls-2" d="M383.58,144.36l1.57-1.79a4.91,4.91,0,0,1-5.24-.93,4.69,4.69,0,0,1-1.76-3.85,8.64,8.64,0,0,1,6.31-7.12A4.91,4.91,0,0,1,388.6,132a5.14,5.14,0,0,1,1.56,2.25,4.35,4.35,0,0,1,0,2.6l4.63-5.27.68.6L384.26,145Zm4.44-5a7.06,7.06,0,0,0,1.35-2.09,4.15,4.15,0,0,0,.24-2,4.32,4.32,0,0,0-1.51-2.62,4,4,0,0,0-3.49-1.1,6.64,6.64,0,0,0-3.67,2.39,6.75,6.75,0,0,0-1.9,3.9,3.84,3.84,0,0,0,1.46,3.26,4.33,4.33,0,0,0,2.84,1.16,4.39,4.39,0,0,0,2-.5,6.23,6.23,0,0,0,1.84-1.45Z" transform="translate(-75.95 -77.37)"/><path class="cls-2" d="M360,412.56a4.87,4.87,0,0,1,4.83-.47,14.57,14.57,0,0,1,7,10.85,5.35,5.35,0,0,1-7.29,4.72,11.64,11.64,0,0,1-4.74-4.63,11.41,11.41,0,0,1-2.21-6.23A5,5,0,0,1,360,412.56Zm.44.74q-4.06,2.61.16,9.19t8.3,4q4.06-2.62-.16-9.2T360.39,413.3Z" transform="translate(-75.95 -77.37)"/><path class="cls-2" d="M352.94,426.72l.39.76-1.87,1a3.46,3.46,0,0,0-1.83,2,3.51,3.51,0,0,0,.38,2.76,3.16,3.16,0,0,0,2.08,1.78,4.35,4.35,0,0,0,3-.6,4,4,0,0,0,2.33-5l.82-.24a5,5,0,0,1-.18,3.5,5.63,5.63,0,0,1-2.63,2.56,5.23,5.23,0,0,1-3.69.67,4,4,0,0,1-2.6-2.17,4.21,4.21,0,0,1-.54-2.48,4,4,0,0,1,1-2.27,4,4,0,0,1-4.62-2.33,4.63,4.63,0,0,1-.44-3.84,5.61,5.61,0,0,1,2.87-3,5.69,5.69,0,0,1,4-.7,4.53,4.53,0,0,1,2.95,2.34l-.78.41c-1.43-2.16-3.36-2.59-5.81-1.3a4.69,4.69,0,0,0-2.39,2.42,3.88,3.88,0,0,0,.4,3.16,3.75,3.75,0,0,0,2.21,2,4,4,0,0,0,3-.48Z" transform="translate(-75.95 -77.37)"/><path class="cls-2" d="M339.4,424.32l1,2.21-.91.41-1-2.21Z" transform="translate(-75.95 -77.37)"/><path class="cls-2" d="M329.86,427.9a4.86,4.86,0,0,1,4.83.5,14.55,14.55,0,0,1,4.65,12,5.33,5.33,0,0,1-8.07,3.17,11.61,11.61,0,0,1-3.73-5.48,11.41,11.41,0,0,1-.92-6.55A4.92,4.92,0,0,1,329.86,427.9Zm.29.8q-4.51,1.76-1.68,9.05t7.34,5.53q4.51-1.75,1.68-9T330.15,428.7Z" transform="translate(-75.95 -77.37)"/><path class="cls-2" d="M321.19,431.53l.24.83-2.7,4.42a44.43,44.43,0,0,0-2.31,4.19,8.86,8.86,0,0,0-.83,2.63,5.4,5.4,0,0,0,.2,2.21,3.82,3.82,0,0,0,1.8,2.46,4,4,0,0,0,3.09.15,4.34,4.34,0,0,0,2.45-1.6,5.21,5.21,0,0,0,.78-3.05l.86,0a5.5,5.5,0,0,1-.92,3.54,5.29,5.29,0,0,1-3,2,5,5,0,0,1-3.78-.21,4.5,4.5,0,0,1-2.23-2.92,6.06,6.06,0,0,1-.2-2.6,10.74,10.74,0,0,1,1-3q.81-1.68,2.35-4.2l2.26-3.64-8.71,2.56-.05-.91Z" transform="translate(-75.95 -77.37)"/><path class="cls-2" d="M307.38,435.33l.55,2.36-1,.23-.55-2.37Z" transform="translate(-75.95 -77.37)"/><path class="cls-2" d="M297.32,436.94a4.89,4.89,0,0,1,4.64,1.45,11.66,11.66,0,0,1,2.57,6.11,11.53,11.53,0,0,1-.4,6.6,5,5,0,0,1-3.9,2.95,4.89,4.89,0,0,1-4.64-1.45,11.58,11.58,0,0,1-2.57-6.11,11.44,11.44,0,0,1,.39-6.6A5,5,0,0,1,297.32,436.94Zm.12.85q-4.77.82-3.43,8.53t6.1,6.88q4.75-.82,3.43-8.53T297.44,437.79Z" transform="translate(-75.95 -77.37)"/><path class="cls-2" d="M282.53,439.27l1.34,15.46,4.1-2.92.47.66L284,455.68l-.93.08-1.42-16.41Z" transform="translate(-75.95 -77.37)"/><path class="cls-2" d="M274.4,446.21l0,.9-6.89.11v-.91Z" transform="translate(-75.95 -77.37)"/><path class="cls-2" d="M258.77,439.18a4.88,4.88,0,0,1,4.2,2.45,14.6,14.6,0,0,1-.74,12.88,5,5,0,0,1-4.47,2,4.86,4.86,0,0,1-4.19-2.45,11.56,11.56,0,0,1-1.13-6.53,11.39,11.39,0,0,1,1.86-6.34A4.92,4.92,0,0,1,258.77,439.18Zm-.07.85q-4.83-.27-5.26,7.54t4.39,8.08q4.83.25,5.27-7.54T258.7,440Z" transform="translate(-75.95 -77.37)"/><path class="cls-2" d="M244.81,446.54l-.12.85-2.1-.29a3.29,3.29,0,0,0-4,3,3.18,3.18,0,0,0,.65,2.67,4.34,4.34,0,0,0,2.81,1.29,4,4,0,0,0,4.84-2.71l.8.28a5,5,0,0,1-2.19,2.74,5.74,5.74,0,0,1-3.64.53,5.19,5.19,0,0,1-3.38-1.62,3.92,3.92,0,0,1-.84-3.28,4.26,4.26,0,0,1,1-2.33,4.09,4.09,0,0,1,2.16-1.24,4,4,0,0,1-2.39-4.6,4.67,4.67,0,0,1,1.9-3.37,5.63,5.63,0,0,1,4.07-.73,5.7,5.7,0,0,1,3.66,1.78,4.53,4.53,0,0,1,1,3.63l-.87-.13c.11-2.58-1.21-4.07-3.95-4.45a4.64,4.64,0,0,0-3.35.56,3.87,3.87,0,0,0-1.53,2.79,3.77,3.77,0,0,0,.61,2.93,4,4,0,0,0,2.71,1.37Z" transform="translate(-75.95 -77.37)"/><path class="cls-2" d="M235.23,436.66l-.47,2.39-1-.2.47-2.38Z" transform="translate(-75.95 -77.37)"/><path class="cls-2" d="M225.4,434a4.91,4.91,0,0,1,3.63,3.24,14.59,14.59,0,0,1-3.26,12.47,5,5,0,0,1-4.78,1.08,4.91,4.91,0,0,1-3.63-3.24,14.59,14.59,0,0,1,3.26-12.47A5,5,0,0,1,225.4,434Zm-.24.83q-4.68-1.21-6.65,6.35t2.72,8.78q4.68,1.21,6.65-6.35T225.16,434.81Z" transform="translate(-75.95 -77.37)"/><path class="cls-2" d="M216.23,431.86l-.28.81-4.78,2a47.19,47.19,0,0,0-4.33,2.05,9.29,9.29,0,0,0-2.21,1.65,5.62,5.62,0,0,0-1.13,1.91,3.89,3.89,0,0,0,0,3.06,4,4,0,0,0,2.42,1.92,4.37,4.37,0,0,0,2.92.14,5.25,5.25,0,0,0,2.42-2l.72.46a5.5,5.5,0,0,1-2.8,2.33,5.36,5.36,0,0,1-3.59-.11,4.94,4.94,0,0,1-2.94-2.38,4.54,4.54,0,0,1-.11-3.68,6.19,6.19,0,0,1,1.37-2.22,10.61,10.61,0,0,1,2.54-1.83,46.7,46.7,0,0,1,4.36-2l4-1.63-8.56-3,.49-.76Z" transform="translate(-75.95 -77.37)"/><path class="cls-2" d="M202.83,426.87l-.94,2.24-.93-.39.94-2.24Z" transform="translate(-75.95 -77.37)"/><path class="cls-2" d="M193.72,422.29a4.9,4.9,0,0,1,2.92,3.89,11.67,11.67,0,0,1-1.5,6.46,11.51,11.51,0,0,1-4.18,5.12,5.35,5.35,0,0,1-7.81-3.79,11.67,11.67,0,0,1,1.5-6.46,11.45,11.45,0,0,1,4.18-5.12A4.93,4.93,0,0,1,193.72,422.29Zm-.4.76q-4.35-2.13-7.77,4.9t.92,9.15q4.35,2.13,7.77-4.9T193.32,423.05Z" transform="translate(-75.95 -77.37)"/><path class="cls-2" d="M174.56,421.86a4.85,4.85,0,0,1-1.55-2.7,4.13,4.13,0,0,1,.58-2.87,4,4,0,0,1,3.08-2.07A6.89,6.89,0,0,1,181,415.4a6.77,6.77,0,0,1,3,3.26,4.07,4.07,0,0,1-.41,3.69,4,4,0,0,1-2.24,1.86,4.74,4.74,0,0,1-3.09-.15,4,4,0,0,1,1.23,2.45,4.22,4.22,0,0,1-.63,2.68,4,4,0,0,1-2.91,2,6.87,6.87,0,0,1-6.67-4,4.41,4.41,0,0,1,2.5-5.31A4,4,0,0,1,174.56,421.86Zm-3.92,2.24a3.4,3.4,0,0,0-.39,2.95,4.74,4.74,0,0,0,2.25,2.53,4.79,4.79,0,0,0,3.26.8,3.38,3.38,0,0,0,2.42-1.76,3.21,3.21,0,0,0,.37-2.87,4.89,4.89,0,0,0-2.28-2.47,5,5,0,0,0-3.27-.85A3.22,3.22,0,0,0,170.64,424.1Zm3.76-7.25a3.22,3.22,0,0,0-.31,3,6,6,0,0,0,2.63,2.7,5.74,5.74,0,0,0,3.59,1,3.72,3.72,0,0,0,2.86-4.8A7,7,0,0,0,177,415.1,3.37,3.37,0,0,0,174.4,416.85Z" transform="translate(-75.95 -77.37)"/><circle class="cls-1" cx="192.25" cy="192.25" r="166.87"/></g></g></svg>
