<svg xmlns="http://www.w3.org/2000/svg" width="384.5" height="384.5" viewBox="0 0 384.5 384.5"><defs><style>.cls-1{fill:#a95417;stroke:#c7c711;stroke-miterlimit:10;stroke-width:0.75px;}.cls-2{fill:#c7c711;}</style></defs><title>tema4</title><g id="Layer_2" data-name="Layer 2"><g id="Layer_1-2" data-name="Layer 1"><circle class="cls-1" cx="192.25" cy="192.25" r="191.88"/><path class="cls-2" d="M175.08,115.73l-4.23,2.68-.45-.73,5-3.19,3.4,5.38a7.87,7.87,0,0,1-1.44,2.82,10,10,0,0,1-2.51,2.25,7.07,7.07,0,0,1-6,1.07,9.71,9.71,0,0,1-5.2-4.48,11.91,11.91,0,0,1-1.81-4.48,6.87,6.87,0,0,1,.48-4,7.1,7.1,0,0,1,2.8-3.06,6.14,6.14,0,0,1,3.89-1.08,6,6,0,0,1,3.59,1.76l-.63.65a4.84,4.84,0,0,0-6.41-.6,5.71,5.71,0,0,0-2.86,4.32,9.36,9.36,0,0,0,1.76,5.94,9,9,0,0,0,4.67,4.11,6.16,6.16,0,0,0,5.34-.91,9,9,0,0,0,2.12-1.85,6.93,6.93,0,0,0,1.27-2.24Z" transform="translate(-72.65 -76.74)"/><path class="cls-2" d="M183,119.66l-5.74-10.79.8-.43,1,1.87a4.68,4.68,0,0,1,2.47-3.93,7.36,7.36,0,0,1,.83-.36l.31.83a6.76,6.76,0,0,0-.75.32,4.08,4.08,0,0,0-1.35,1.13,4.2,4.2,0,0,0-.75,1.67,3,3,0,0,0-.06,1.25,4.65,4.65,0,0,0,.52,1.39l3.53,6.63Z" transform="translate(-72.65 -76.74)"/><path class="cls-2" d="M198.22,112.25l-.87-1.91a5.44,5.44,0,0,1-3.19,4.17,3.66,3.66,0,0,1-3.13.17,4.85,4.85,0,0,1-2.29-2.61l-3.36-7.43.83-.37,3.27,7.23a4.5,4.5,0,0,0,1.9,2.33,3,3,0,0,0,2.57-.14,4.75,4.75,0,0,0,2.49-2.59,3.54,3.54,0,0,0,.29-1.52,4.85,4.85,0,0,0-.5-1.71l-3-6.76.82-.37,5,11.14Z" transform="translate(-72.65 -76.74)"/><path class="cls-2" d="M210.91,107.44,208.22,100a4.42,4.42,0,0,0-1.73-2.45,3.08,3.08,0,0,0-2.67,0,4.93,4.93,0,0,0-2.77,2.41,3.33,3.33,0,0,0-.46,1.51,5.17,5.17,0,0,0,.36,1.75l2.51,7-.85.31-4.14-11.51.85-.3.71,2a5.7,5.7,0,0,1,3.64-4,3.91,3.91,0,0,1,3.23,0,4.79,4.79,0,0,1,2.1,2.77l2.76,7.67Z" transform="translate(-72.65 -76.74)"/><path class="cls-2" d="M224.41,103.54l-.63-2.3a4.9,4.9,0,0,1-3.67,3.86,4.7,4.7,0,0,1-4.18-.66,7.4,7.4,0,0,1-2.6-4.22,7.29,7.29,0,0,1,.16-5,4.9,4.9,0,0,1,3.39-2.71,5,5,0,0,1,2.74,0,4.28,4.28,0,0,1,2.17,1.41L220,87.11l.88-.23,4.44,16.43Zm-1.7-6.45a7.29,7.29,0,0,0-1-2.29,4.15,4.15,0,0,0-1.56-1.32,4.29,4.29,0,0,0-3-.19,4,4,0,0,0-2.85,2.3,8.16,8.16,0,0,0,2.16,8.12,3.87,3.87,0,0,0,3.52.59,4.38,4.38,0,0,0,2.54-1.73,4.33,4.33,0,0,0,.71-2,6.06,6.06,0,0,0-.19-2.33Z" transform="translate(-72.65 -76.74)"/><path class="cls-2" d="M229.13,102.52l-3.52-16.65.89-.19L230,102.33Z" transform="translate(-72.65 -76.74)"/><path class="cls-2" d="M251.4,96a4,4,0,0,1-1.23,2.71,5.22,5.22,0,0,1-3,1.3,5.31,5.31,0,0,1-3.17-.47,4.86,4.86,0,0,1-2.14-2.3,3.47,3.47,0,0,1-.69,1.75,5.15,5.15,0,0,1-1.66,1.45,6,6,0,0,1-2.3.77,4.25,4.25,0,0,1-3.12-.6A3.57,3.57,0,0,1,232.7,98a3.3,3.3,0,0,1,1-3.09,9.17,9.17,0,0,1,4.42-1.66l2.59-.43-.07-.5a4.22,4.22,0,0,0-1.16-2.77,3.69,3.69,0,0,0-2.84-.48,4.84,4.84,0,0,0-2.43.87,2.69,2.69,0,0,0-.94,1.88l-.82,0c.15-2,1.53-3.18,4.13-3.52a4.73,4.73,0,0,1,3,.39,3.52,3.52,0,0,1,1.55,2.21,4.87,4.87,0,0,1,1.52-2.58,5.2,5.2,0,0,1,2.79-1.18,4.42,4.42,0,0,1,3.85,1.11,7,7,0,0,1,1.86,4.3l.08.61-9.43,1.23a6.05,6.05,0,0,0,1.72,3.85,4.81,4.81,0,0,0,5.94,0,3.29,3.29,0,0,0,1-2.09Zm-10.56-2.42-2.49.42a8.42,8.42,0,0,0-3.85,1.37,2.65,2.65,0,0,0-.88,2.54,2.84,2.84,0,0,0,1.11,2.06,3.5,3.5,0,0,0,2.49.43,5.87,5.87,0,0,0,1.81-.54,4.22,4.22,0,0,0,1.37-1,3.48,3.48,0,0,0,.76-2.84Zm9.45-1.09a6,6,0,0,0-1.53-3.66,3.74,3.74,0,0,0-3.22-.89,4,4,0,0,0-3,1.73,6.14,6.14,0,0,0-.8,3.93Z" transform="translate(-72.65 -76.74)"/><path class="cls-2" d="M264.55,95.81a4.93,4.93,0,0,1-4.5,2.81,4.77,4.77,0,0,1-3.89-1.56,6.82,6.82,0,0,1-1.51-4.5A6.7,6.7,0,0,1,256,88a5,5,0,0,1,3.92-1.77,5.17,5.17,0,0,1,2.69.59,4.28,4.28,0,0,1,1.78,1.82l-.06-2.14.91,0,.31,12a5.22,5.22,0,0,1-1.19,3.91,5.39,5.39,0,0,1-3.88,1.37,6.27,6.27,0,0,1-3.57-.79,3.42,3.42,0,0,1-1.54-2.49l.86,0a2.75,2.75,0,0,0,1.32,1.92,5.6,5.6,0,0,0,2.94.57,4.47,4.47,0,0,0,3.24-1.1,4.65,4.65,0,0,0,.91-3.37Zm-.05-4a6.72,6.72,0,0,0-.43-2.33,3.77,3.77,0,0,0-1.2-1.56A4.35,4.35,0,0,0,260,87a4.17,4.17,0,0,0-3.33,1.49,7.39,7.39,0,0,0,.18,8,4,4,0,0,0,3.29,1.33,4.49,4.49,0,0,0,2.85-1,4.08,4.08,0,0,0,1.17-1.65,5.58,5.58,0,0,0,.36-2.21Z" transform="translate(-72.65 -76.74)"/><path class="cls-2" d="M278.86,96.37a5,5,0,0,1-4.72,2.44,4.76,4.76,0,0,1-3.75-1.88,6.79,6.79,0,0,1-1.14-4.61A6.7,6.7,0,0,1,271,87.86a4.94,4.94,0,0,1,4-1.44,5.28,5.28,0,0,1,2.65.8,4.34,4.34,0,0,1,1.61,2l.13-2.14.9,0L279.62,99a5.21,5.21,0,0,1-1.51,3.81,5.37,5.37,0,0,1-4,1,6.21,6.21,0,0,1-3.5-1.08,3.38,3.38,0,0,1-1.33-2.61l.86,0a2.74,2.74,0,0,0,1.16,2,5.61,5.61,0,0,0,2.88.8,4.45,4.45,0,0,0,3.31-.82A4.66,4.66,0,0,0,278.71,99Zm.27-4A6.32,6.32,0,0,0,278.9,90a3.82,3.82,0,0,0-1.07-1.66,4.32,4.32,0,0,0-2.78-1.09,4.15,4.15,0,0,0-3.44,1.21,7.39,7.39,0,0,0-.48,8A4,4,0,0,0,274.3,98a4.51,4.51,0,0,0,2.94-.79,4.16,4.16,0,0,0,1.29-1.55,5.63,5.63,0,0,0,.54-2.16Z" transform="translate(-72.65 -76.74)"/><path class="cls-2" d="M293.58,98a4,4,0,0,1-1.92,2.28,5.3,5.3,0,0,1-3.27.47,5.11,5.11,0,0,1-3.82-2.21,7.06,7.06,0,0,1-.78-4.9,7.3,7.3,0,0,1,2.1-4.59,5,5,0,0,1,4.25-1.17A4.58,4.58,0,0,1,293.62,90a6.86,6.86,0,0,1,.69,4.66l-.08.61-9.56-1.31a6,6,0,0,0,.65,4.16,4.3,4.3,0,0,0,3.25,1.88,4.43,4.43,0,0,0,2.6-.31,3.28,3.28,0,0,0,1.56-1.76Zm-.14-3.68a5.93,5.93,0,0,0-.52-3.93A3.78,3.78,0,0,0,290,88.68a4.18,4.18,0,0,0-3.4.86,6.06,6.06,0,0,0-1.83,3.6Z" transform="translate(-72.65 -76.74)"/><path class="cls-2" d="M305.34,103.56,307,95.8a4.44,4.44,0,0,0-.16-3,3.11,3.11,0,0,0-2.23-1.45,5,5,0,0,0-3.64.57,3.42,3.42,0,0,0-1.19,1,5,5,0,0,0-.62,1.67l-1.59,7.25-.88-.2,2.61-11.94.89.19-.45,2a5.66,5.66,0,0,1,5.18-1.4,3.89,3.89,0,0,1,2.71,1.75,4.79,4.79,0,0,1,.3,3.47l-1.74,8Z" transform="translate(-72.65 -76.74)"/><path class="cls-2" d="M318.82,107.43l.7-2.28a4.91,4.91,0,0,1-5.16,1.31,4.7,4.7,0,0,1-3.19-2.78,7.39,7.39,0,0,1,0-5A7.17,7.17,0,0,1,314,94.59a4.89,4.89,0,0,1,4.31-.5,5.22,5.22,0,0,1,2.35,1.41,4.38,4.38,0,0,1,1.09,2.35l2-6.7.87.27-5,16.27Zm2-6.37a7.15,7.15,0,0,0,.37-2.47,4.15,4.15,0,0,0-.62-1.94,4.29,4.29,0,0,0-2.45-1.77,4,4,0,0,0-3.63.43A6.58,6.58,0,0,0,312.13,99a6.71,6.71,0,0,0-.13,4.34,3.86,3.86,0,0,0,2.66,2.37,4.39,4.39,0,0,0,3.08-.11,4.48,4.48,0,0,0,1.65-1.3,5.94,5.94,0,0,0,1.07-2.08Z" transform="translate(-72.65 -76.74)"/><path class="cls-2" d="M333.58,109.76a4,4,0,0,1-2.42,1.76,5.37,5.37,0,0,1-3.28-.32,5.13,5.13,0,0,1-3.19-3.06,7.09,7.09,0,0,1,.41-4.94,7.31,7.31,0,0,1,3.14-4,4.94,4.94,0,0,1,4.4-.13,4.6,4.6,0,0,1,2.89,2.85,6.85,6.85,0,0,1-.44,4.68l-.23.58-9-3.56a6.1,6.1,0,0,0-.36,4.21,4.34,4.34,0,0,0,2.72,2.6,4.4,4.4,0,0,0,2.59.31,3.28,3.28,0,0,0,1.94-1.33Zm.73-3.61a6,6,0,0,0,.44-3.94,3.78,3.78,0,0,0-2.43-2.36,4.17,4.17,0,0,0-3.51,0,6,6,0,0,0-2.63,3.05Z" transform="translate(-72.65 -76.74)"/><path class="cls-2" d="M359.21,107.07l.83.46-5,9.1q-3.37,6.2-8.71,3.28a5.64,5.64,0,0,1-3.15-3.73,8.06,8.06,0,0,1,1.24-5.41l4.95-9.06.83.46-5,9.14a7.09,7.09,0,0,0-1.11,4.67,5.68,5.68,0,0,0,6.76,3.71,7.16,7.16,0,0,0,3.32-3.48Z" transform="translate(-72.65 -76.74)"/><path class="cls-2" d="M364.54,130.79l-.21-10-9.28,3.64-.87-.58,10.11-4-.22-9.89.93.63.16,9,8.42-3.21.88.58-9.25,3.55.26,10.92Z" transform="translate(-72.65 -76.74)"/><path class="cls-2" d="M363.88,407a4.88,4.88,0,0,1,4.81-.73,11.57,11.57,0,0,1,5,4.38,11.45,11.45,0,0,1,2.53,6.1,4.92,4.92,0,0,1-2.23,4.36,4.86,4.86,0,0,1-4.8.73,11.57,11.57,0,0,1-5-4.38,11.45,11.45,0,0,1-2.53-6.11A4.93,4.93,0,0,1,363.88,407Zm.49.71q-3.93,2.82.63,9.17t8.49,3.52q3.93-2.82-.63-9.17T364.37,407.71Z" transform="translate(-72.65 -76.74)"/><path class="cls-2" d="M349.88,416.57l2.31,3.87,7.12-4.25.42.7-1.35,13.79-.84.5-5.71-9.58-2.09,1.25-.23-.81,1.9-1.13L349.1,417Zm7.82,13.1,1.19-12.28-6.29,3.75Z" transform="translate(-72.65 -76.74)"/><path class="cls-2" d="M344,419.81,345.1,422l-.89.46-1.13-2.16Z" transform="translate(-72.65 -76.74)"/><path class="cls-2" d="M334.64,423.88a4.89,4.89,0,0,1,4.86.24,11.6,11.6,0,0,1,4,5.28,11.42,11.42,0,0,1,1.26,6.49,5.34,5.34,0,0,1-7.9,3.59,11.6,11.6,0,0,1-4-5.28,11.42,11.42,0,0,1-1.26-6.49A4.94,4.94,0,0,1,334.64,423.88Zm.34.79q-4.43,2-1.2,9.12t7.62,5.14q4.41-2,1.2-9.12T335,424.67Z" transform="translate(-72.65 -76.74)"/><path class="cls-2" d="M326.17,428l.28.81L324,433.33a43.38,43.38,0,0,0-2.09,4.31,9,9,0,0,0-.7,2.67,5.63,5.63,0,0,0,.32,2.2,3.81,3.81,0,0,0,1.93,2.36,4,4,0,0,0,3.09,0,4.33,4.33,0,0,0,2.36-1.72,5.24,5.24,0,0,0,.62-3.09l.86-.09a5.54,5.54,0,0,1-.73,3.57,5.3,5.3,0,0,1-2.87,2.16,5,5,0,0,1-3.78,0,4.57,4.57,0,0,1-2.39-2.8,6.23,6.23,0,0,1-.32-2.59,10.71,10.71,0,0,1,.83-3c.48-1.15,1.19-2.58,2.13-4.31l2.06-3.76-8.56,3-.09-.9Z" transform="translate(-72.65 -76.74)"/><path class="cls-2" d="M312.57,432.48l.68,2.33-1,.28-.67-2.34Z" transform="translate(-72.65 -76.74)"/><path class="cls-2" d="M302.61,434.61a4.88,4.88,0,0,1,4.71,1.2,14.61,14.61,0,0,1,2.83,12.58,4.93,4.93,0,0,1-3.75,3.15,4.87,4.87,0,0,1-4.71-1.21,11.65,11.65,0,0,1-2.88-6,11.39,11.39,0,0,1,.06-6.61A4.9,4.9,0,0,1,302.61,434.61Zm.17.84q-4.72,1.07-3,8.69t6.45,6.56c3.14-.72,4.14-3.61,3-8.7S305.93,434.73,302.78,435.45Z" transform="translate(-72.65 -76.74)"/><path class="cls-2" d="M287.94,437.7l2.13,15.36,3.94-3.12.5.63L290.2,454l-.92.13L287,437.82Z" transform="translate(-72.65 -76.74)"/><path class="cls-2" d="M256.16,438.59a4.9,4.9,0,0,1,4.21,2.44,11.58,11.58,0,0,1,1.15,6.52,11.46,11.46,0,0,1-1.84,6.35,5.35,5.35,0,0,1-8.67-.42,11.63,11.63,0,0,1-1.15-6.53,11.46,11.46,0,0,1,1.84-6.35A4.93,4.93,0,0,1,256.16,438.59Zm-.07.85q-4.83-.24-5.23,7.56t4.43,8.06q4.83.26,5.23-7.56T256.09,439.44Z" transform="translate(-72.65 -76.74)"/><path class="cls-2" d="M239.23,437.32l-.61,4.46,8.21,1.13-.11.8-9.66,9.93-1-.13,1.52-11.05-2.41-.33.32-.78,2.2.31.61-4.47Zm-2.07,15.11,8.6-8.85-7.25-1Z" transform="translate(-72.65 -76.74)"/><path class="cls-2" d="M232.59,436.16l-.47,2.38-1-.19.47-2.39Z" transform="translate(-72.65 -76.74)"/><path class="cls-2" d="M222.76,433.52a4.89,4.89,0,0,1,3.65,3.22,11.63,11.63,0,0,1-.16,6.62,11.4,11.4,0,0,1-3.06,5.86,5.33,5.33,0,0,1-8.41-2.12c-.6-1.68-.54-3.89.15-6.63a11.59,11.59,0,0,1,3.06-5.86A5,5,0,0,1,222.76,433.52Zm-.23.82q-4.69-1.18-6.62,6.38t2.75,8.77q4.68,1.2,6.62-6.37T222.53,434.34Z" transform="translate(-72.65 -76.74)"/><path class="cls-2" d="M207.66,438.05l-.28.81-2-.7a3.48,3.48,0,0,0-2.75.06,3.54,3.54,0,0,0-1.76,2.16,3.16,3.16,0,0,0,.12,2.74,4.37,4.37,0,0,0,2.51,1.81,4,4,0,0,0,5.27-1.73l.73.44a4.94,4.94,0,0,1-2.68,2.26,5.72,5.72,0,0,1-3.67-.18,5.24,5.24,0,0,1-3-2.25,3.92,3.92,0,0,1-.19-3.38,4.27,4.27,0,0,1,1.45-2.09,4,4,0,0,1,2.35-.79,4,4,0,0,1-1.44-5,4.62,4.62,0,0,1,2.51-2.94,5.6,5.6,0,0,1,4.14.08,5.73,5.73,0,0,1,3.25,2.45,4.53,4.53,0,0,1,.29,3.75l-.83-.29c.61-2.51-.4-4.22-3-5.13a4.62,4.62,0,0,0-3.4-.1,3.82,3.82,0,0,0-2,2.44,3.67,3.67,0,0,0,0,3,4,4,0,0,0,2.39,1.87Z" transform="translate(-72.65 -76.74)"/><path class="cls-2" d="M200.15,426.49l-.93,2.25-.92-.39.93-2.24Z" transform="translate(-72.65 -76.74)"/><path class="cls-2" d="M191,422a4.88,4.88,0,0,1,2.93,3.87c.26,1.77-.23,3.92-1.46,6.47a11.56,11.56,0,0,1-4.16,5.14,5.35,5.35,0,0,1-7.83-3.75,11.62,11.62,0,0,1,1.47-6.47,11.44,11.44,0,0,1,4.16-5.14A5,5,0,0,1,191,422Zm-.39.76q-4.36-2.1-7.76,4.94t1,9.14q4.36,2.1,7.76-4.94T190.65,422.72Z" transform="translate(-72.65 -76.74)"/><path class="cls-2" d="M177.65,415.24l-7.92,13.34,5,0v.8h-5.51l-.8-.47,8.4-14.17Z" transform="translate(-72.65 -76.74)"/><circle class="cls-1" cx="192.25" cy="192.25" r="166.87"/></g></g></svg>
