<svg xmlns="http://www.w3.org/2000/svg" width="384.5" height="384.5" viewBox="0 0 384.5 384.5"><defs><style>.cls-1{fill:#a95417;stroke:#c7c711;stroke-miterlimit:10;stroke-width:0.75px;}.cls-2{fill:#c7c711;}</style></defs><title>tema1</title><g id="Layer_2" data-name="Layer 2"><g id="Layer_1-2" data-name="Layer 1"><circle class="cls-1" cx="192.25" cy="192.25" r="191.88"/><path class="cls-2" d="M156.46,119.21,152.33,122l-.48-.7,4.91-3.37,3.6,5.24a7.75,7.75,0,0,1-1.34,2.87,10,10,0,0,1-2.42,2.35,7.1,7.1,0,0,1-6,1.29,9.75,9.75,0,0,1-5.37-4.28,12,12,0,0,1-2-4.42,6.92,6.92,0,0,1,.33-4,7.19,7.19,0,0,1,2.68-3.17,6.24,6.24,0,0,1,3.85-1.22,6,6,0,0,1,3.65,1.63l-.6.67a4.84,4.84,0,0,0-6.43-.35,5.67,5.67,0,0,0-2.69,4.41,9.32,9.32,0,0,0,2,5.88,9.09,9.09,0,0,0,4.82,3.93,6.16,6.16,0,0,0,5.3-1.11,9.16,9.16,0,0,0,2-1.92,7.08,7.08,0,0,0,1.19-2.29Z" transform="translate(-59.65 -76.78)"/><path class="cls-2" d="M164.56,122.84l-6.14-10.57.78-.45,1.07,1.83a4.67,4.67,0,0,1,2.32-4,6.29,6.29,0,0,1,.82-.4l.34.83a5.19,5.19,0,0,0-.74.34,4,4,0,0,0-1.31,1.18,4.3,4.3,0,0,0-.69,1.69,3.1,3.1,0,0,0,0,1.25,4.7,4.7,0,0,0,.57,1.38l3.78,6.49Z" transform="translate(-59.65 -76.78)"/><path class="cls-2" d="M179.47,114.87l-.94-1.88a5.41,5.41,0,0,1-3,4.28,3.71,3.71,0,0,1-3.13.29A4.89,4.89,0,0,1,170,115l-3.63-7.29.81-.41,3.54,7.11a4.46,4.46,0,0,0,2,2.25,2.93,2.93,0,0,0,2.56-.23,4.78,4.78,0,0,0,2.39-2.68,3.63,3.63,0,0,0,.24-1.53,5.07,5.07,0,0,0-.57-1.69l-3.3-6.64.81-.4,5.45,10.94Z" transform="translate(-59.65 -76.78)"/><path class="cls-2" d="M192,109.59l-3-7.36a4.35,4.35,0,0,0-1.82-2.39,3,3,0,0,0-2.66.06,4.92,4.92,0,0,0-2.69,2.52,3.48,3.48,0,0,0-.4,1.52,5.09,5.09,0,0,0,.43,1.73l2.77,6.87-.84.34-4.57-11.34.84-.34.78,2a5.67,5.67,0,0,1,3.5-4.08,3.87,3.87,0,0,1,3.22-.08,4.74,4.74,0,0,1,2.2,2.7l3.05,7.56Z" transform="translate(-59.65 -76.78)"/><path class="cls-2" d="M205.28,105.2l-.71-2.28a4.9,4.9,0,0,1-3.52,4,4.69,4.69,0,0,1-4.2-.5,7.33,7.33,0,0,1-2.76-4.12,7.23,7.23,0,0,1,0-5,4.94,4.94,0,0,1,3.29-2.84,5.14,5.14,0,0,1,2.73-.15,4.27,4.27,0,0,1,2.23,1.33L200.23,89l.86-.27,5.06,16.25Zm-1.94-6.39a7.15,7.15,0,0,0-1.08-2.25,4,4,0,0,0-4.63-1.34,4,4,0,0,0-2.75,2.4A6.62,6.62,0,0,0,195,102a6.73,6.73,0,0,0,2.34,3.66,3.85,3.85,0,0,0,3.53.46,4.36,4.36,0,0,0,2.48-1.82,4.45,4.45,0,0,0,.64-2,6.13,6.13,0,0,0-.28-2.32Z" transform="translate(-59.65 -76.78)"/><path class="cls-2" d="M210,104l-4.13-16.51.88-.22,4.13,16.51Z" transform="translate(-59.65 -76.78)"/><path class="cls-2" d="M232,96.62a4,4,0,0,1-1.13,2.75,5,5,0,0,1-2.91,1.41,5.31,5.31,0,0,1-3.18-.34,5,5,0,0,1-2.23-2.23,3.48,3.48,0,0,1-.62,1.78,5.17,5.17,0,0,1-1.6,1.51,6.16,6.16,0,0,1-2.28.86,4.29,4.29,0,0,1-3.14-.49,3.55,3.55,0,0,1-1.52-2.52,3.29,3.29,0,0,1,.92-3.13,9.16,9.16,0,0,1,4.36-1.82l2.57-.53-.08-.5a4.2,4.2,0,0,0-1.27-2.72,3.71,3.71,0,0,0-2.86-.38,4.86,4.86,0,0,0-2.39,1,2.67,2.67,0,0,0-.87,1.92h-.82c.08-2,1.41-3.24,4-3.67a4.71,4.71,0,0,1,3,.27,3.52,3.52,0,0,1,1.64,2.15A4.88,4.88,0,0,1,223,89.26,5.08,5.08,0,0,1,225.77,88a4.43,4.43,0,0,1,3.89,1,7,7,0,0,1,2,4.23l.11.61-9.38,1.58a6.09,6.09,0,0,0,1.86,3.79,4.25,4.25,0,0,0,3.61.82,4.13,4.13,0,0,0,2.33-1.08,3.33,3.33,0,0,0,.94-2.13Zm-10.64-2-2.47.51a8.27,8.27,0,0,0-3.8,1.51,2.63,2.63,0,0,0-.78,2.57,2.79,2.79,0,0,0,1.18,2,3.52,3.52,0,0,0,2.5.34,6.07,6.07,0,0,0,1.8-.61,4.28,4.28,0,0,0,1.32-1.08,3.45,3.45,0,0,0,.66-2.87Zm9.4-1.45a5.9,5.9,0,0,0-1.67-3.59,3.69,3.69,0,0,0-3.25-.77,4,4,0,0,0-2.91,1.83,6.15,6.15,0,0,0-.65,4Z" transform="translate(-59.65 -76.78)"/><path class="cls-2" d="M245.12,96a5,5,0,0,1-4.4,3,4.77,4.77,0,0,1-3.95-1.41,6.84,6.84,0,0,1-1.67-4.44,6.75,6.75,0,0,1,1.16-4.64,5,5,0,0,1,3.85-1.91,5.27,5.27,0,0,1,2.71.48,4.36,4.36,0,0,1,1.85,1.76l-.14-2.14.9-.06.76,12a5.22,5.22,0,0,1-1,3.95,5.38,5.38,0,0,1-3.83,1.51,6.14,6.14,0,0,1-3.6-.66,3.39,3.39,0,0,1-1.63-2.42l.86-.06a2.76,2.76,0,0,0,1.39,1.87,5.5,5.5,0,0,0,3,.46,4.41,4.41,0,0,0,3.19-1.22,4.59,4.59,0,0,0,.79-3.4Zm-.21-4a6.69,6.69,0,0,0-.51-2.31,3.88,3.88,0,0,0-1.26-1.52,4.36,4.36,0,0,0-2.89-.75A4.15,4.15,0,0,0,237,89a7.43,7.43,0,0,0,.48,8,4,4,0,0,0,3.34,1.2A4.52,4.52,0,0,0,243.61,97a4.24,4.24,0,0,0,1.1-1.69,5.52,5.52,0,0,0,.27-2.22Z" transform="translate(-59.65 -76.78)"/><path class="cls-2" d="M259.47,96a4.94,4.94,0,0,1-4.63,2.6A4.76,4.76,0,0,1,251,96.89a6.89,6.89,0,0,1-1.31-4.57,6.7,6.7,0,0,1,1.55-4.52,4.92,4.92,0,0,1,4-1.59,5.15,5.15,0,0,1,2.67.71,4.22,4.22,0,0,1,1.69,1.9l.05-2.15.9,0-.23,12a5.22,5.22,0,0,1-1.37,3.86A5.36,5.36,0,0,1,255,103.7a6.22,6.22,0,0,1-3.53-1,3.37,3.37,0,0,1-1.43-2.56l.86,0a2.75,2.75,0,0,0,1.23,2,5.54,5.54,0,0,0,2.91.7,4.45,4.45,0,0,0,3.28-1,4.64,4.64,0,0,0,1.07-3.33Zm.13-4a6.55,6.55,0,0,0-.32-2.35A3.84,3.84,0,0,0,258.15,88a4.36,4.36,0,0,0-2.82-1,4.17,4.17,0,0,0-3.4,1.34,7.45,7.45,0,0,0-.18,8A4,4,0,0,0,255,97.81a4.59,4.59,0,0,0,2.9-.89,4.27,4.27,0,0,0,1.24-1.6,5.67,5.67,0,0,0,.46-2.19Z" transform="translate(-59.65 -76.78)"/><path class="cls-2" d="M274.24,97.11a3.94,3.94,0,0,1-1.84,2.35,5.25,5.25,0,0,1-3.24.58,5.08,5.08,0,0,1-3.9-2.06,7,7,0,0,1-1-4.87,7.32,7.32,0,0,1,1.93-4.67,5,5,0,0,1,4.2-1.32A4.57,4.57,0,0,1,274,89.07a6.84,6.84,0,0,1,.87,4.62l-.06.62-9.61-1a6.07,6.07,0,0,0,.81,4.14,5,5,0,0,0,5.9,1.34,3.25,3.25,0,0,0,1.5-1.81ZM274,93.44a6,6,0,0,0-.66-3.92,3.78,3.78,0,0,0-3-1.6,4.15,4.15,0,0,0-3.37,1,6,6,0,0,0-1.7,3.66Z" transform="translate(-59.65 -76.78)"/><path class="cls-2" d="M286.16,102.21l1.41-7.81a4.42,4.42,0,0,0-.27-3A3.1,3.1,0,0,0,285,90a5,5,0,0,0-3.61.7,3.45,3.45,0,0,0-1.15,1.08,5,5,0,0,0-.56,1.69l-1.31,7.3-.9-.16,2.17-12,.89.16-.37,2.07a5.7,5.7,0,0,1,5.13-1.6,3.93,3.93,0,0,1,2.77,1.65,4.76,4.76,0,0,1,.43,3.46l-1.45,8Z" transform="translate(-59.65 -76.78)"/><path class="cls-2" d="M299.79,105.58l.61-2.3a4.89,4.89,0,0,1-5.11,1.5,4.68,4.68,0,0,1-3.28-2.66,8.66,8.66,0,0,1,2.48-9.19,4.94,4.94,0,0,1,4.3-.66,5.21,5.21,0,0,1,2.4,1.33,4.33,4.33,0,0,1,1.17,2.31l1.8-6.78.87.24-4.36,16.45Zm1.76-6.43a7.44,7.44,0,0,0,.28-2.48,4.12,4.12,0,0,0-.69-1.92,4.32,4.32,0,0,0-2.51-1.68,4,4,0,0,0-3.62.57,6.64,6.64,0,0,0-2.22,3.77,6.77,6.77,0,0,0,0,4.34,3.86,3.86,0,0,0,2.75,2.27,4.4,4.4,0,0,0,3.07-.22,4.63,4.63,0,0,0,1.61-1.36,6.38,6.38,0,0,0,1-2.12Z" transform="translate(-59.65 -76.78)"/><path class="cls-2" d="M314.6,107.36a4,4,0,0,1-2.35,1.85A5.25,5.25,0,0,1,309,109a5.1,5.1,0,0,1-3.3-2.93,7,7,0,0,1,.23-4.95,7.33,7.33,0,0,1,3-4.08,5,5,0,0,1,4.4-.29,4.62,4.62,0,0,1,3,2.74,6.87,6.87,0,0,1-.26,4.7l-.21.58-9.1-3.22a6.05,6.05,0,0,0-.2,4.22,5.06,5.06,0,0,0,5.41,2.71,3.27,3.27,0,0,0,1.89-1.41Zm.6-3.63a6,6,0,0,0,.29-4A3.77,3.77,0,0,0,313,97.51a4.14,4.14,0,0,0-3.51.15,6.08,6.08,0,0,0-2.52,3.15Z" transform="translate(-59.65 -76.78)"/><path class="cls-2" d="M334.05,119.8l3.42-15.94-11,12-.93-.48,3.66-17.27.91.47-3.54,15.94,11.1-11.94.91.47L335.12,119l11-12.09.87.45-12,13Z" transform="translate(-59.65 -76.78)"/><path class="cls-2" d="M350.39,126.3a3.91,3.91,0,0,1-2.71,1.25,5.27,5.27,0,0,1-3.15-1A5.15,5.15,0,0,1,342,123a7,7,0,0,1,1.38-4.76,7.33,7.33,0,0,1,3.85-3.27,5,5,0,0,1,4.34.75,4.56,4.56,0,0,1,2.27,3.36,6.8,6.8,0,0,1-1.35,4.51l-.33.52-8.1-5.26a6,6,0,0,0-1.18,4A4.31,4.31,0,0,0,345,126a4.36,4.36,0,0,0,2.48.81,3.23,3.23,0,0,0,2.16-.92Zm1.43-3.39a6,6,0,0,0,1.21-3.78,3.79,3.79,0,0,0-1.92-2.78,4.14,4.14,0,0,0-3.44-.68,6.11,6.11,0,0,0-3.18,2.48Z" transform="translate(-59.65 -76.78)"/><path class="cls-2" d="M351.67,130.94l10.39-13.48.71.55-4.38,5.68a4.92,4.92,0,0,1,5.3.59,4.73,4.73,0,0,1,2,3.73,7.32,7.32,0,0,1-1.79,4.62,7.23,7.23,0,0,1-4.06,2.89,4.91,4.91,0,0,1-4.22-1.05,5.12,5.12,0,0,1-1.69-2.15,4.29,4.29,0,0,1-.19-2.59l-1.36,1.76Zm4.07-3.88a7,7,0,0,0-1.22,2.18,4.15,4.15,0,0,0-.11,2,4.34,4.34,0,0,0,1.67,2.52,4,4,0,0,0,3.55.87,6.62,6.62,0,0,0,3.52-2.62,6.74,6.74,0,0,0,1.64-4,3.85,3.85,0,0,0-1.65-3.16,4.39,4.39,0,0,0-2.92-1,4.51,4.51,0,0,0-2,.63,6.07,6.07,0,0,0-1.73,1.57Z" transform="translate(-59.65 -76.78)"/><path class="cls-2" d="M292.15,434.05a4.87,4.87,0,0,1,4.72,1.13,11.61,11.61,0,0,1,3,5.93,11.44,11.44,0,0,1,0,6.61,5.33,5.33,0,0,1-8.42,2.07,11.65,11.65,0,0,1-3-5.92,11.48,11.48,0,0,1-.05-6.62A4.94,4.94,0,0,1,292.15,434.05Zm.18.84q-4.71,1.14-2.86,8.74t6.55,6.45q4.69-1.14,2.85-8.73T292.33,434.89Z" transform="translate(-59.65 -76.78)"/><path class="cls-2" d="M277.51,437.37l2.37,15.33,3.89-3.18.51.62-4.26,3.5-.92.14-2.51-16.27Z" transform="translate(-59.65 -76.78)"/><path class="cls-2" d="M268.9,438.44l.23,2.43-1,.09-.23-2.42Z" transform="translate(-59.65 -76.78)"/><path class="cls-2" d="M258.7,438.72a4.9,4.9,0,0,1,4.41,2,14.59,14.59,0,0,1,.48,12.88,5.34,5.34,0,0,1-8.67.37,11.68,11.68,0,0,1-1.74-6.4,11.47,11.47,0,0,1,1.26-6.49A5,5,0,0,1,258.7,438.72Zm0,.86q-4.83.19-4.53,8t5.15,7.62q4.83-.18,4.52-8T258.71,439.58Z" transform="translate(-59.65 -76.78)"/><path class="cls-2" d="M241.75,439l-.2,4.5,8.28.37,0,.81-8.72,10.77-1,0,.51-11.15-2.43-.11.25-.8,2.21.11.21-4.5Zm-.69,15.24,7.76-9.6-7.31-.33Z" transform="translate(-59.65 -76.78)"/><path class="cls-2" d="M235,438.45l-.25,2.41-1-.1.24-2.42Z" transform="translate(-59.65 -76.78)"/><path class="cls-2" d="M225,436.71a4.9,4.9,0,0,1,3.92,2.87,11.57,11.57,0,0,1,.45,6.62,11.44,11.44,0,0,1-2.51,6.11,5.33,5.33,0,0,1-8.57-1.34,11.56,11.56,0,0,1-.45-6.62,11.44,11.44,0,0,1,2.51-6.11A4.92,4.92,0,0,1,225,436.71Zm-.16.85q-4.77-.76-6,6.95c-.83,5.15.36,8,3.54,8.49s5.19-1.81,6-7S228,438.07,224.84,437.56Z" transform="translate(-59.65 -76.78)"/><path class="cls-2" d="M215.67,435.47l-.21.83-4.56,2.45a43.91,43.91,0,0,0-4.11,2.46,8.68,8.68,0,0,0-2,1.85,5.55,5.55,0,0,0-.94,2,3.83,3.83,0,0,0,.31,3,4,4,0,0,0,2.59,1.69,4.33,4.33,0,0,0,2.92-.15,5.24,5.24,0,0,0,2.22-2.24l.76.39a5.51,5.51,0,0,1-2.57,2.59,5.34,5.34,0,0,1-3.58.23,4.93,4.93,0,0,1-3.15-2.09,4.49,4.49,0,0,1-.46-3.65,6,6,0,0,1,1.15-2.34,10.79,10.79,0,0,1,2.35-2.07q1.54-1,4.14-2.43l3.79-2-8.81-2.19.42-.8Z" transform="translate(-59.65 -76.78)"/><circle class="cls-1" cx="192.25" cy="192.25" r="166.87"/></g></g></svg>
