<svg xmlns="http://www.w3.org/2000/svg" width="384.5" height="384.5" viewBox="0 0 384.5 384.5"><defs><style>.cls-1{fill:#a95417;stroke:#c7c711;stroke-miterlimit:10;stroke-width:0.75px;}.cls-2{fill:#c7c711;}</style></defs><title>tema2</title><g id="Layer_2" data-name="Layer 2"><g id="Layer_1-2" data-name="Layer 1"><circle class="cls-1" cx="192.25" cy="192.25" r="191.88"/><path class="cls-2" d="M144.48,140.87,141,144.48l-.62-.59,4.13-4.3,4.59,4.41a8,8,0,0,1-.73,3.08,10.22,10.22,0,0,1-1.9,2.79,7.12,7.12,0,0,1-5.61,2.48,9.81,9.81,0,0,1-6.12-3.11,12.08,12.08,0,0,1-2.83-3.92,7,7,0,0,1-.48-4,7.21,7.21,0,0,1,2-3.65,6.15,6.15,0,0,1,3.52-2,6,6,0,0,1,3.91.85l-.46.78a4.83,4.83,0,0,0-6.37,1,5.67,5.67,0,0,0-1.74,4.87,9.34,9.34,0,0,0,3.12,5.35,9.06,9.06,0,0,0,5.52,2.87,6.15,6.15,0,0,0,5-2.15,9.23,9.23,0,0,0,1.62-2.3,6.88,6.88,0,0,0,.7-2.48Z" transform="translate(-76.02 -76.01)"/><path class="cls-2" d="M153.15,142.78,145,133.67l.67-.6,1.42,1.58a4.65,4.65,0,0,1,1.46-4.41,6.72,6.72,0,0,1,.72-.55l.5.73a4.77,4.77,0,0,0-.65.49,4,4,0,0,0-1.05,1.42,4.25,4.25,0,0,0-.33,1.8,3.07,3.07,0,0,0,.24,1.23,5,5,0,0,0,.84,1.22l5,5.6Z" transform="translate(-76.02 -76.01)"/><path class="cls-2" d="M166.13,132l-1.3-1.65a5.4,5.4,0,0,1-2.1,4.8,3.71,3.71,0,0,1-3,.93,5,5,0,0,1-2.84-2l-5-6.41.72-.56,4.9,6.24a4.52,4.52,0,0,0,2.41,1.81,2.93,2.93,0,0,0,2.46-.75,4.77,4.77,0,0,0,1.79-3.11,3.57,3.57,0,0,0-.07-1.55,5.25,5.25,0,0,0-.9-1.54l-4.58-5.83.71-.56,7.56,9.62Z" transform="translate(-76.02 -76.01)"/><path class="cls-2" d="M177.31,124.24l-4.4-6.61a4.43,4.43,0,0,0-2.26-2,3.11,3.11,0,0,0-2.6.6,4.94,4.94,0,0,0-2.12,3,3.43,3.43,0,0,0-.08,1.57,4.9,4.9,0,0,0,.77,1.61l4.1,6.17-.75.5-6.77-10.18.75-.5,1.16,1.75a5.69,5.69,0,0,1,2.6-4.71,3.84,3.84,0,0,1,3.13-.72,4.71,4.71,0,0,1,2.71,2.19l4.51,6.79Z" transform="translate(-76.02 -76.01)"/><path class="cls-2" d="M189.45,117.25l-1.16-2.08a4.89,4.89,0,0,1-2.64,4.62,4.72,4.72,0,0,1-4.21.36,7.39,7.39,0,0,1-3.54-3.48,7.23,7.23,0,0,1-1-4.88,4.89,4.89,0,0,1,2.64-3.45,5.19,5.19,0,0,1,2.65-.7,4.37,4.37,0,0,1,2.44.85l-3.39-6.13.79-.44,8.24,14.89Zm-3.19-5.86a7.14,7.14,0,0,0-1.52-2,4.07,4.07,0,0,0-1.82-.91,4.31,4.31,0,0,0-3,.53,4,4,0,0,0-2.21,2.91,6.61,6.61,0,0,0,1,4.27,6.75,6.75,0,0,0,3,3.1,3.87,3.87,0,0,0,3.56-.26,4.2,4.2,0,0,0,2.28-4.38,6.09,6.09,0,0,0-.75-2.22Z" transform="translate(-76.02 -76.01)"/><path class="cls-2" d="M193.8,115.12l-7.39-15.33.82-.39,7.39,15.33Z" transform="translate(-76.02 -76.01)"/><path class="cls-2" d="M213.86,103.45a4,4,0,0,1-.55,2.92,5.1,5.1,0,0,1-2.56,2,5.29,5.29,0,0,1-3.19.31,4.88,4.88,0,0,1-2.63-1.73,3.5,3.5,0,0,1-.25,1.86,5.21,5.21,0,0,1-1.26,1.81,6.12,6.12,0,0,1-2.06,1.3,4.25,4.25,0,0,1-3.17.16,3.57,3.57,0,0,1-2-2.16,3.29,3.29,0,0,1,.28-3.25,9.06,9.06,0,0,1,3.89-2.67l2.41-1-.18-.46a4.17,4.17,0,0,0-1.79-2.41,3.64,3.64,0,0,0-2.88.21,4.78,4.78,0,0,0-2.14,1.42,2.68,2.68,0,0,0-.47,2l-.81.16q-.5-3,3.17-4.41a4.81,4.81,0,0,1,3-.34,3.49,3.49,0,0,1,2,1.78,4.88,4.88,0,0,1,.87-2.87A5.18,5.18,0,0,1,206,96.24a4.47,4.47,0,0,1,4,.16,7,7,0,0,1,2.83,3.73l.22.58-8.86,3.45a6.06,6.06,0,0,0,2.59,3.33,4.26,4.26,0,0,0,3.7.08,4.18,4.18,0,0,0,2.06-1.53,3.33,3.33,0,0,0,.5-2.28Zm-10.83.17-2.32,1a8.33,8.33,0,0,0-3.41,2.24,2.65,2.65,0,0,0-.25,2.68,2.78,2.78,0,0,0,1.57,1.73,3.44,3.44,0,0,0,2.51-.17,5.54,5.54,0,0,0,1.64-1,4.23,4.23,0,0,0,1.08-1.33,3.4,3.4,0,0,0,.06-2.93Zm8.91-3.31a6,6,0,0,0-2.36-3.19,3.77,3.77,0,0,0-3.34-.1,4,4,0,0,0-2.48,2.39,6.12,6.12,0,0,0,.17,4Z" transform="translate(-76.02 -76.01)"/><path class="cls-2" d="M226.61,100.16a4.94,4.94,0,0,1-3.71,3.8,4.74,4.74,0,0,1-4.15-.59,6.86,6.86,0,0,1-2.54-4,6.72,6.72,0,0,1,.21-4.77,5,5,0,0,1,3.37-2.65,5.21,5.21,0,0,1,2.76-.08,4.2,4.2,0,0,1,2.16,1.35l-.56-2.07.87-.24,3.15,11.55a5.25,5.25,0,0,1-.21,4.08,5.4,5.4,0,0,1-3.44,2.25,6.21,6.21,0,0,1-3.66.09,3.42,3.42,0,0,1-2.09-2.05l.83-.23a2.74,2.74,0,0,0,1.74,1.55,5.59,5.59,0,0,0,3-.15,4.47,4.47,0,0,0,2.88-1.83,4.65,4.65,0,0,0,.08-3.5Zm-1-3.93a6.51,6.51,0,0,0-1-2.15,3.87,3.87,0,0,0-1.54-1.24,4.31,4.31,0,0,0-3-.15,4.17,4.17,0,0,0-2.88,2.25,6.1,6.1,0,0,0-.09,4.17,6.18,6.18,0,0,0,2.17,3.54,4,4,0,0,0,3.5.5,4.62,4.62,0,0,0,2.54-1.68,4.24,4.24,0,0,0,.73-1.88,5.54,5.54,0,0,0-.17-2.23Z" transform="translate(-76.02 -76.01)"/><path class="cls-2" d="M240.65,97.3a4.92,4.92,0,0,1-4,3.48,4.78,4.78,0,0,1-4.09-.92,6.82,6.82,0,0,1-2.2-4.21,6.75,6.75,0,0,1,.59-4.74,5,5,0,0,1,3.59-2.37,5.14,5.14,0,0,1,2.75.16,4.29,4.29,0,0,1,2.05,1.52l-.4-2.11.89-.17L242,99.71a5.21,5.21,0,0,1-.55,4.05,5.38,5.38,0,0,1-3.61,2,6.21,6.21,0,0,1-3.66-.22,3.37,3.37,0,0,1-1.91-2.21l.84-.16a2.81,2.81,0,0,0,1.61,1.69,5.5,5.5,0,0,0,3,.1,4.53,4.53,0,0,0,3-1.59,4.7,4.7,0,0,0,.37-3.48Zm-.69-4a6.62,6.62,0,0,0-.79-2.23,3.86,3.86,0,0,0-1.43-1.35,4.39,4.39,0,0,0-3-.4,4.17,4.17,0,0,0-3.06,2,6.11,6.11,0,0,0-.43,4.15,6.18,6.18,0,0,0,1.87,3.71,4,4,0,0,0,3.46.78,4.53,4.53,0,0,0,2.66-1.46,4.18,4.18,0,0,0,.88-1.82,5.39,5.39,0,0,0,0-2.23Z" transform="translate(-76.02 -76.01)"/><path class="cls-2" d="M255.34,95.38A4,4,0,0,1,254,98.05,5.31,5.31,0,0,1,251,99.28a5.14,5.14,0,0,1-4.24-1.23,7,7,0,0,1-1.93-4.57,7.34,7.34,0,0,1,1-5,5,5,0,0,1,3.85-2.15,4.6,4.6,0,0,1,3.87,1.2,6.86,6.86,0,0,1,1.79,4.35l.06.62-9.6,1a6,6,0,0,0,1.63,3.89,4.35,4.35,0,0,0,3.6,1,4.42,4.42,0,0,0,2.45-.93,3.24,3.24,0,0,0,1.1-2.08Zm-1-3.54a6,6,0,0,0-1.44-3.7,3.79,3.79,0,0,0-3.24-1,4.17,4.17,0,0,0-3.1,1.64,6.06,6.06,0,0,0-.92,3.93Z" transform="translate(-76.02 -76.01)"/><path class="cls-2" d="M268,98l-.2-7.94a4.36,4.36,0,0,0-.87-2.87,3.07,3.07,0,0,0-2.51-.88,4.91,4.91,0,0,0-3.4,1.42,3.31,3.31,0,0,0-.91,1.28,4.92,4.92,0,0,0-.21,1.77l.19,7.41-.91,0L258.92,86l.9,0,.06,2.1a5.67,5.67,0,0,1,4.7-2.6,3.88,3.88,0,0,1,3,1.06,4.75,4.75,0,0,1,1.12,3.29l.21,8.15Z" transform="translate(-76.02 -76.01)"/><path class="cls-2" d="M282.06,98.51l.13-2.38a4.91,4.91,0,0,1-4.7,2.51,4.73,4.73,0,0,1-3.76-1.94,7.37,7.37,0,0,1-1.14-4.83,7.29,7.29,0,0,1,1.72-4.68,4.9,4.9,0,0,1,4.07-1.51,5,5,0,0,1,2.62.81,4.33,4.33,0,0,1,1.62,2l.38-7,.91,0-.94,17Zm.42-6.66a7.25,7.25,0,0,0-.23-2.49,4.22,4.22,0,0,0-1.06-1.74,4.32,4.32,0,0,0-2.81-1.13A4,4,0,0,0,275,87.78a6.6,6.6,0,0,0-1.41,4.14,6.69,6.69,0,0,0,.91,4.24,3.82,3.82,0,0,0,3.15,1.67,4.35,4.35,0,0,0,3-.84,4.48,4.48,0,0,0,1.3-1.66,6.06,6.06,0,0,0,.54-2.27Z" transform="translate(-76.02 -76.01)"/><path class="cls-2" d="M297,97.25A3.92,3.92,0,0,1,295,99.54a5.34,5.34,0,0,1-3.26.47A5.13,5.13,0,0,1,288,97.8a7,7,0,0,1-.78-4.9,7.32,7.32,0,0,1,2.1-4.59,5,5,0,0,1,4.25-1.18A4.59,4.59,0,0,1,297,89.21a6.86,6.86,0,0,1,.69,4.66l-.08.61L288,93.17a6.11,6.11,0,0,0,.66,4.17A4.34,4.34,0,0,0,292,99.21a4.41,4.41,0,0,0,2.59-.31,3.24,3.24,0,0,0,1.56-1.76Zm-.14-3.67a5.93,5.93,0,0,0-.52-3.93,3.78,3.78,0,0,0-2.92-1.72,4.18,4.18,0,0,0-3.4.86,6.06,6.06,0,0,0-1.83,3.6Z" transform="translate(-76.02 -76.01)"/><path class="cls-2" d="M317.73,105.2,317,99.39l-8-2.1L305.66,102l-1-.26L315.52,87l1.06.27,2.17,18.17Zm-2-17.07-6.1,8.4L317,98.46Z" transform="translate(-76.02 -76.01)"/><path class="cls-2" d="M329.51,109.31l2.68-7.47a4.45,4.45,0,0,0,.23-3,3.13,3.13,0,0,0-2-1.73,4.93,4.93,0,0,0-3.68.1,3.38,3.38,0,0,0-1.32.87,5,5,0,0,0-.83,1.58l-2.5,7-.85-.3,4.13-11.51.85.3-.71,2a5.67,5.67,0,0,1,5.32-.73,3.88,3.88,0,0,1,2.46,2.09,4.71,4.71,0,0,1-.15,3.48l-2.75,7.67Z" transform="translate(-76.02 -76.01)"/><path class="cls-2" d="M333.92,111.14l4.75-11.27.83.35-4.75,11.27Zm5.73-13.67.86-2,.87.37-.85,2Z" transform="translate(-76.02 -76.01)"/><path class="cls-2" d="M352.57,120.13l3.75-7.32a4.18,4.18,0,0,0,.59-2.71,2.78,2.78,0,0,0-1.62-1.81,4,4,0,0,0-1.54-.45,4.88,4.88,0,0,0-1.71.21,3,3,0,0,0-1.28.65,4.68,4.68,0,0,0-.95,1.34l-3.52,6.87-.81-.42,3.76-7.31a4.19,4.19,0,0,0,.59-2.71,2.62,2.62,0,0,0-1.52-1.76,4.25,4.25,0,0,0-3.36-.22,3.36,3.36,0,0,0-1.35.74,5.07,5.07,0,0,0-1,1.41l-3.4,6.63-.81-.41L344,102l.81.41-1,1.85a5.14,5.14,0,0,1,4.94-.23,3.61,3.61,0,0,1,1.67,1.6,3.44,3.44,0,0,1,.23,2.27,5.24,5.24,0,0,1,5.2-.22,3.4,3.4,0,0,1,1.92,2.18,4.43,4.43,0,0,1-.56,3.15l-3.87,7.55Z" transform="translate(-76.02 -76.01)"/><path class="cls-2" d="M363.26,126.92l1.11-1.72a4.94,4.94,0,0,1-2.56.42,5.82,5.82,0,0,1-2.58-1,4.47,4.47,0,0,1-2.06-2.49,3.43,3.43,0,0,1,.55-2.9,3.27,3.27,0,0,1,2.81-1.69,9.16,9.16,0,0,1,4.5,1.6l2.3,1.37.27-.43a4.11,4.11,0,0,0,.88-2.87,3.75,3.75,0,0,0-1.89-2.22,5,5,0,0,0-2.46-.93,2.63,2.63,0,0,0-1.94.82l-.61-.56c1.42-1.44,3.25-1.43,5.51,0a4.65,4.65,0,0,1,2.27,2.71,4.7,4.7,0,0,1-1,3.45L364,127.4Zm3.67-5.74-2.22-1.32a8.65,8.65,0,0,0-3.9-1.45,2.62,2.62,0,0,0-2.31,1.37,2.67,2.67,0,0,0-.45,2.29,3.65,3.65,0,0,0,1.68,2,4.64,4.64,0,0,0,3.44.82,3.74,3.74,0,0,0,1.41-.49,3.78,3.78,0,0,0,1-1.14Z" transform="translate(-76.02 -76.01)"/><path class="cls-2" d="M371.8,132.92a4.58,4.58,0,0,1-1.8-.85q-2.46-1.8-.38-4.63l4.83-6.59-1.52-1.11.48-.66,1.52,1.12,2-2.73.73.54-2,2.72,3.1,2.27-.48.66-3.1-2.27L370.3,128a3,3,0,0,0-.73,1.93,2.12,2.12,0,0,0,1,1.51,4.37,4.37,0,0,0,1.47.72Z" transform="translate(-76.02 -76.01)"/><path class="cls-2" d="M373.77,134.65l7.57-9.6.71.56-7.57,9.6ZM382.93,123l1.36-1.72.75.59-1.36,1.72Z" transform="translate(-76.02 -76.01)"/><path class="cls-2" d="M381.18,141.35a5.15,5.15,0,0,1-1.94-4,7,7,0,0,1,2-4.55,8.06,8.06,0,0,1,2.78-2.11,5.22,5.22,0,0,1,3-.4,5.52,5.52,0,0,1,2.81,1.41,5.2,5.2,0,0,1,1.94,4,7.07,7.07,0,0,1-2.06,4.57,7.84,7.84,0,0,1-2.76,2.09,5.14,5.14,0,0,1-3,.4A5.49,5.49,0,0,1,381.18,141.35Zm.55-.59a4.25,4.25,0,0,0,3.58,1.19,7.78,7.78,0,0,0,5.58-6.28,4.81,4.81,0,0,0-5.18-4.61,7.81,7.81,0,0,0-5.58,6.28A4.25,4.25,0,0,0,381.73,140.76Z" transform="translate(-76.02 -76.01)"/><path class="cls-2" d="M394.17,153.57l5.73-5.49a4.38,4.38,0,0,0,1.54-2.58,3.06,3.06,0,0,0-1-2.45,5,5,0,0,0-3.34-1.56,3.3,3.3,0,0,0-1.56.2,4.91,4.91,0,0,0-1.45,1l-5.35,5.13-.63-.65,8.83-8.46.63.65L396,140.84a5.71,5.71,0,0,1,5.09,1.73,3.89,3.89,0,0,1,1.27,3,4.75,4.75,0,0,1-1.69,3.05l-5.89,5.64Z" transform="translate(-76.02 -76.01)"/><path class="cls-2" d="M408,364.83a4.89,4.89,0,0,1,4.28-2.3,11.61,11.61,0,0,1,6.16,2.46,11.43,11.43,0,0,1,4.43,4.91,4.93,4.93,0,0,1-.64,4.85,4.87,4.87,0,0,1-4.28,2.29,14.58,14.58,0,0,1-10.59-7.36A4.93,4.93,0,0,1,408,364.83Zm.69.51q-2.76,4,3.67,8.43t9.18.47q2.76-4-3.67-8.43T408.66,365.34Z" transform="translate(-76.02 -76.01)"/><path class="cls-2" d="M402.87,372.72l.66.55.18,5.17a47.81,47.81,0,0,0,.39,4.78,9.39,9.39,0,0,0,.76,2.65,5.74,5.74,0,0,0,1.39,1.73,3.86,3.86,0,0,0,2.87,1.06,4,4,0,0,0,2.66-1.58,4.39,4.39,0,0,0,1.15-2.69,5.22,5.22,0,0,0-1-3l.68-.52a5.57,5.57,0,0,1,1.2,3.45,5.39,5.39,0,0,1-1.38,3.32,4.94,4.94,0,0,1-3.26,1.91,4.55,4.55,0,0,1-3.48-1.2,6.18,6.18,0,0,1-1.6-2.07,10.68,10.68,0,0,1-.81-3c-.17-1.23-.29-2.82-.36-4.79l-.13-4.29-5.85,7-.54-.74Z" transform="translate(-76.02 -76.01)"/><path class="cls-2" d="M393.51,383.59l1.78,1.65-.67.74-1.79-1.65Z" transform="translate(-76.02 -76.01)"/><path class="cls-2" d="M386.1,390.57a4.9,4.9,0,0,1,4.65-1.41,14.58,14.58,0,0,1,8.94,9.29,5.33,5.33,0,0,1-6.22,6.05,11.7,11.7,0,0,1-5.56-3.61,11.51,11.51,0,0,1-3.38-5.69A4.93,4.93,0,0,1,386.1,390.57Zm.58.64q-3.48,3.35,1.95,9t8.91,2.26q3.48-3.36-2-9T386.68,391.21Z" transform="translate(-76.02 -76.01)"/><path class="cls-2" d="M375.16,400.82l9.78,12,1.76-4.72.75.28-1.9,5.18-.73.58L374.44,401.4Z" transform="translate(-76.02 -76.01)"/><path class="cls-2" d="M368.24,406.12l1.43,2-.81.58-1.43-2Z" transform="translate(-76.02 -76.01)"/><path class="cls-2" d="M359.6,411.49a4.88,4.88,0,0,1,4.84-.46,11.55,11.55,0,0,1,4.72,4.65,11.37,11.37,0,0,1,2.19,6.24,5.34,5.34,0,0,1-7.3,4.68,14.6,14.6,0,0,1-6.92-10.88A4.92,4.92,0,0,1,359.6,411.49Zm.44.73q-4.08,2.61.12,9.2t8.28,4q4.08-2.61-.12-9.2T360,412.22Z" transform="translate(-76.02 -76.01)"/><path class="cls-2" d="M345.09,420.26l2.09,4,7.35-3.84.37.72-2.11,13.69-.87.46-5.17-9.89-2.15,1.13-.19-.82,2-1-2.09-4Zm7.07,13.52,1.88-12.2L347.55,425Z" transform="translate(-76.02 -76.01)"/><path class="cls-2" d="M311.48,432.51a4.89,4.89,0,0,1,4.74,1A14.6,14.6,0,0,1,319.47,446a5.34,5.34,0,0,1-8.39,2.22,14.63,14.63,0,0,1-3.24-12.47A4.9,4.9,0,0,1,311.48,432.51Zm.19.83q-4.68,1.23-2.7,8.79t6.67,6.34q4.68-1.23,2.7-8.79T311.67,433.34Z" transform="translate(-76.02 -76.01)"/><path class="cls-2" d="M300.46,443.79l.15.85-2.09.36a3.52,3.52,0,0,0-2.38,1.38,3.58,3.58,0,0,0-.49,2.75,3.24,3.24,0,0,0,1.43,2.34,4.46,4.46,0,0,0,3.08.36,4,4,0,0,0,3.77-4.07l.85,0a4.91,4.91,0,0,1-1.25,3.27,5.63,5.63,0,0,1-3.29,1.63,5.22,5.22,0,0,1-3.72-.51,3.89,3.89,0,0,1-1.8-2.86,4.26,4.26,0,0,1,.25-2.53,4.09,4.09,0,0,1,1.67-1.84A4,4,0,0,1,293,441.3a4.65,4.65,0,0,1,.78-3.79,5.57,5.57,0,0,1,3.65-1.94,5.67,5.67,0,0,1,4,.57,4.54,4.54,0,0,1,2.08,3.14l-.87.15q-1-3.75-5.12-3a4.65,4.65,0,0,0-3,1.56,3.84,3.84,0,0,0-.6,3.13,3.74,3.74,0,0,0,1.48,2.59,4,4,0,0,0,3,.48Z" transform="translate(-76.02 -76.01)"/><path class="cls-2" d="M288.3,437.33l.28,2.42-1,.11-.27-2.41Z" transform="translate(-76.02 -76.01)"/><path class="cls-2" d="M278.12,437.8a4.88,4.88,0,0,1,4.45,2,11.62,11.62,0,0,1,1.87,6.36,11.48,11.48,0,0,1-1.14,6.51,5.34,5.34,0,0,1-8.66.53,14.63,14.63,0,0,1-.73-12.87A4.94,4.94,0,0,1,278.12,437.8Zm0,.86q-4.83.27-4.37,8.08c.3,5.21,2.06,7.71,5.28,7.53s4.68-2.89,4.38-8.09S281.37,438.47,278.15,438.66Z" transform="translate(-76.02 -76.01)"/><path class="cls-2" d="M265.08,446.7l0,.86-2.12-.06a3.52,3.52,0,0,0-2.6.88,3.57,3.57,0,0,0-1,2.6,3.24,3.24,0,0,0,.94,2.58,4.48,4.48,0,0,0,2.95,1,4,4,0,0,0,4.5-3.25l.83.19a5,5,0,0,1-1.87,3,5.65,5.65,0,0,1-3.56.94,5.27,5.27,0,0,1-3.54-1.22,3.93,3.93,0,0,1-1.2-3.17,4.29,4.29,0,0,1,.74-2.43,4,4,0,0,1,2-1.47,4,4,0,0,1-2.89-4.3,4.66,4.66,0,0,1,1.5-3.57,6.64,6.64,0,0,1,7.8.17,4.54,4.54,0,0,1,1.43,3.49l-.89,0c-.18-2.58-1.66-3.9-4.42-4a4.71,4.71,0,0,0-3.27.94,3.87,3.87,0,0,0-1.2,2.95,3.74,3.74,0,0,0,.94,2.84,4,4,0,0,0,2.85,1.05Z" transform="translate(-76.02 -76.01)"/><path class="cls-2" d="M254.44,438l-.2,2.42-1-.08.2-2.43Z" transform="translate(-76.02 -76.01)"/><path class="cls-2" d="M244.39,436.42a4.91,4.91,0,0,1,4,2.8,11.71,11.71,0,0,1,.57,6.61,11.44,11.44,0,0,1-2.4,6.16,5,5,0,0,1-4.62,1.61,4.89,4.89,0,0,1-4-2.8,11.62,11.62,0,0,1-.58-6.61,11.44,11.44,0,0,1,2.4-6.16A4.94,4.94,0,0,1,244.39,436.42Zm-.14.85q-4.8-.67-5.88,7.06t3.69,8.42q4.8.67,5.89-7.06T244.25,437.27Z" transform="translate(-76.02 -76.01)"/><path class="cls-2" d="M227.66,433.66l-1,4.39,8.08,1.85-.18.79-10.51,9-.95-.22,2.49-10.87-2.37-.55.39-.74,2.17.5,1-4.39Zm-3.42,14.86,9.36-8-7.13-1.64Z" transform="translate(-76.02 -76.01)"/><path class="cls-2" d="M194.17,421.11a4.9,4.9,0,0,1,2.92,3.88,14.57,14.57,0,0,1-5.66,11.59,5.34,5.34,0,0,1-7.81-3.77,14.57,14.57,0,0,1,5.66-11.59A4.93,4.93,0,0,1,194.17,421.11Zm-.4.76q-4.35-2.12-7.77,4.92t.94,9.14q4.35,2.11,7.77-4.91T193.77,421.87Z" transform="translate(-76.02 -76.01)"/><path class="cls-2" d="M185.6,417.21l-.44.74-5.08,1a45.56,45.56,0,0,0-4.65,1.16,8.77,8.77,0,0,0-2.49,1.18,5.51,5.51,0,0,0-1.49,1.65,3.84,3.84,0,0,0-.58,3,4,4,0,0,0,2,2.36,4.34,4.34,0,0,0,2.84.71,5.21,5.21,0,0,0,2.77-1.5l.62.59a5.53,5.53,0,0,1-3.22,1.74,5.35,5.35,0,0,1-3.49-.82,4.94,4.94,0,0,1-2.41-2.92,4.5,4.5,0,0,1,.62-3.62,5.93,5.93,0,0,1,1.78-1.91,10.56,10.56,0,0,1,2.85-1.29,45.6,45.6,0,0,1,4.67-1.13l4.21-.82-7.8-4.65.64-.65Z" transform="translate(-76.02 -76.01)"/><path class="cls-2" d="M173.43,409.67l-1.37,2-.83-.56,1.37-2Z" transform="translate(-76.02 -76.01)"/><path class="cls-2" d="M165.42,403.4a4.89,4.89,0,0,1,2.09,4.38A14.64,14.64,0,0,1,159.68,418a5.35,5.35,0,0,1-6.92-5.25,11.57,11.57,0,0,1,2.74-6,11.43,11.43,0,0,1,5.1-4.21A5,5,0,0,1,165.42,403.4Zm-.54.67q-3.85-2.94-8.59,3.28t-.89,9.15q3.84,2.94,8.59-3.28T164.88,404.07Z" transform="translate(-76.02 -76.01)"/><path class="cls-2" d="M154.48,400.28c1.33-2,1.06-3.86-.78-5.53q-3.19-2.88-6.27.53t0,6.21a5.25,5.25,0,0,0,4.22,1.41l.63.57-6.29,6-6.28-5.67.57-.64L146,408.3l5-4.69a5.85,5.85,0,0,1-4.18-1.6,4.79,4.79,0,0,1-1.82-3.53,6.79,6.79,0,0,1,5.44-5.92,5.08,5.08,0,0,1,3.82,1.55,5.42,5.42,0,0,1,1.91,3.29,4.65,4.65,0,0,1-1,3.45Z" transform="translate(-76.02 -76.01)"/><path class="cls-2" d="M147.32,388.11l-1.73,1.7-.7-.71,1.73-1.71Z" transform="translate(-76.02 -76.01)"/><path class="cls-2" d="M140.69,380.39a4.88,4.88,0,0,1,1.19,4.71,11.58,11.58,0,0,1-3.86,5.38,11.46,11.46,0,0,1-5.83,3.12,4.93,4.93,0,0,1-4.56-1.78,4.87,4.87,0,0,1-1.19-4.71,11.6,11.6,0,0,1,3.86-5.39,11.46,11.46,0,0,1,5.83-3.12A4.94,4.94,0,0,1,140.69,380.39Zm-.66.55c-2.14-2.43-5.16-1.91-9.07,1.53s-4.8,6.38-2.67,8.8,5.16,1.91,9.07-1.54S142.16,383.36,140,380.94Z" transform="translate(-76.02 -76.01)"/><path class="cls-2" d="M125.65,375.6l-.69.51-1.26-1.7a3.29,3.29,0,0,0-5-.72,3.18,3.18,0,0,0-1.45,2.33,4.39,4.39,0,0,0,1,2.91,4,4,0,0,0,5.33,1.55l.36.77a4.92,4.92,0,0,1-3.49.36,5.7,5.7,0,0,1-2.93-2.22,5.2,5.2,0,0,1-1.21-3.55,4,4,0,0,1,1.75-2.9,4.43,4.43,0,0,1,2.37-.91,4.08,4.08,0,0,1,2.4.68,4,4,0,0,1,1.61-4.93,4.67,4.67,0,0,1,3.73-1,6.62,6.62,0,0,1,4.67,6.26,4.5,4.5,0,0,1-1.87,3.26l-.52-.71c1.92-1.73,2.05-3.71.41-5.93a4.62,4.62,0,0,0-2.75-2,3.83,3.83,0,0,0-3.06.87,3.71,3.71,0,0,0-1.66,2.49,4,4,0,0,0,.92,2.89Z" transform="translate(-76.02 -76.01)"/><circle class="cls-1" cx="192.25" cy="192.25" r="166.87"/></g></g></svg>
